<?xml version="1.0" encoding="UTF-8"?>
<svg width="135px" height="172px" viewBox="0 0 135 172" version="1.1" xmlns="http://www.w3.org/2000/svg" xmlns:xlink="http://www.w3.org/1999/xlink">
    <!-- Generator: Sketch 59.1 (86144) - https://sketch.com -->
    <title>how_do_3_i</title>
    <desc>Created with Sketch.</desc>
    <g id="current" stroke="none" stroke-width="1" fill="none" fill-rule="evenodd">
        <g id="02-iq_main-calculator-silver" transform="translate(-1019.000000, -4565.000000)">
            <g id="Group-23" transform="translate(0.000000, 3452.000000)">
                <g id="how_do_3_i" transform="translate(1019.000000, 1113.000000)">
                    <polygon id="Fill-1" fill="#FFFFFF" points="50.9652 -0.0001 0.0002 118.4459 83.7512 154.4799 134.7152 36.0349"></polygon>
                    <polygon id="Fill-8" fill="#DCE4E7" points="93.8613 100.1262 31.7943 73.4192 31.9853 72.9722 94.0523 99.6792"></polygon>
                    <polygon id="Fill-9" fill="#DCE4E7" points="32.1133 73.2912 31.6663 73.1002 45.0193 42.0662 45.4673 42.2582"></polygon>
                    <polygon id="Fill-10" fill="#50ABFF" points="36.29 74.7355 34.388 73.9185 38.153 65.1695 40.056 65.9875"></polygon>
                    <polygon id="Fill-12" fill="#50ABFF" points="41.1152 76.8117 39.2132 75.9937 46.8382 58.2717 48.7402 59.0907"></polygon>
                    <polygon id="Fill-13" fill="#0085FF" points="46.1201 78.966 44.2171 78.147 50.6221 63.254 52.5271 64.073"></polygon>
                    <polygon id="Fill-15" fill="#0085FF" points="50.9443 81.0412 49.0423 80.2222 54.6483 67.1912 56.5503 68.0102"></polygon>
                    <polygon id="Fill-16" fill="#0085FF" points="55.9492 83.1945 54.0472 82.3755 59.2042 70.3875 61.1072 71.2065"></polygon>
                    <polygon id="Fill-18" fill="#0085FF" points="60.7724 85.2707 58.8704 84.4517 66.4954 66.7307 68.3984 67.5487"></polygon>
                    <polygon id="Fill-19" fill="#0085FF" points="65.7773 87.424 63.8763 86.605 75.1363 60.432 77.0383 61.25"></polygon>
                    <polygon id="Fill-21" fill="#0085FF" points="70.6015 89.4992 68.7005 88.6812 78.6315 65.5982 80.5345 66.4162"></polygon>
                    <polygon id="Fill-22" fill="#50ABFF" points="75.6064 91.6525 73.7054 90.8345 77.1804 82.7555 79.0824 83.5735"></polygon>
                    <polygon id="Fill-24" fill="#0085FF" points="80.4306 93.7287 78.5286 92.9097 82.1176 84.5707 84.0196 85.3897"></polygon>
                    <polygon id="Fill-25" fill="#50ABFF" points="85.4355 95.882 83.5325 95.064 89.9405 80.171 91.8425 80.989"></polygon>
                    <polygon id="Fill-27" fill="#0085FF" points="90.2588 97.9572 88.3568 97.1392 96.5118 78.1882 98.4128 79.0072"></polygon>
                    <polygon id="Fill-28" fill="#DCE4E7" points="42.1552 101.7902 23.0932 93.5872 27.7442 82.7762 46.8062 90.9782"></polygon>
                    <polygon id="Fill-29" fill="#DCE4E7" points="94.8193 52.3078 48.9513 32.5728 49.3363 31.6798 95.2043 51.4138"></polygon>
                    <polygon id="Fill-31" fill="#DCE4E7" points="106.8944 49.2671 51.4954 25.4311 53.3524 21.1111 108.7514 44.9481"></polygon>
                    <polygon id="Fill-38" fill="#FFFFFF" points="98.7138 60.218 99.9748 57.291 102.8988 58.55 101.6388 61.476"></polygon>
                    <g id="Group-78" transform="translate(47.000000, 53.710000)">
                        <path d="M75.6123,2.881 L77.1743,66.096 C77.7743,65.957 78.2323,65.319 78.2883,64.525 L76.7633,2.852 L75.6123,2.881 Z" id="Fill-41" fill="#0085FF"></path>
                        <path d="M79.5088,2.7843 L76.7638,2.8513 L78.2878,64.5243 L78.2878,64.5223 C78.2888,64.5313 78.2898,64.5373 78.2898,64.5373 C78.2898,64.5373 78.2918,64.5283 78.2918,64.5213 C78.3978,65.4033 78.9948,66.0743 79.6978,66.0556937 C80.4048,66.0373 80.9628,65.3393 81.0248,64.4553 C81.0278,64.4613 81.0278,64.4703 81.0288,64.4753 C81.0288,64.4713 81.0298,64.4633 81.0298,64.4633 L81.0298,64.4563 L79.5088,2.7843 Z" id="Fill-43" fill="#50ABFF"></path>
                        <path d="M81.0302,64.4562 C81.1262,65.2462 81.6162,65.8632 82.2232,65.9722 L80.6592,2.7562 L79.5092,2.7842 L81.0302,64.4562 Z" id="Fill-45" fill="#0085FF"></path>
                        <path d="M59.6191,108.2716 C46.6481,121.2436 25.6171,121.2426 12.6461,108.2716 C-0.3249,95.3006 -0.3249,74.2696 12.6461,61.2976 C25.6171,48.3276 46.6501,48.3276 59.6211,61.2976 C72.5931,74.2686 72.5911,95.3006 59.6191,108.2716" id="Fill-59" fill="#50ABFF" opacity="0.300000012"></path>
                        <path d="M82.2236,65.9728 C81.6176,65.8648 81.1256,65.2478 81.0306,64.4558 L81.0306,64.4548 C81.0306,64.4548 81.0286,64.4708 81.0286,64.4758 C81.0276,64.4698 81.0276,64.4608 81.0246,64.4548 C80.9626,65.3388 80.4046,66.0368 79.6986,66.0558 C78.9946,66.0748 78.3976,65.4038 78.2916,64.5218 L78.2916,64.5378 C78.2916,64.5378 78.2886,64.5318 78.2876,64.5228 L78.2876,64.5248 C78.2326,65.3188 77.7726,65.9618 77.1696,66.0978 L79.8016,70.1968 L82.2236,65.9728 Z" id="Fill-47" fill="#F0EDDA"></path>
                        <path d="M78.5088,68.1837 L79.8018,70.1967 L80.9908,68.1227 C80.5878,68.0077 80.1718,67.9507 79.7458,67.9607 C79.3198,67.9707 78.9048,68.0487 78.5088,68.1837" id="Fill-49" fill="#0085FF"></path>
                        <polygon id="Fill-51" fill="#D46F41" points="75.6113 2.8566 76.7633 2.8286 76.7153 0.8596 75.5623 0.8866"></polygon>
                        <polygon id="Fill-53" fill="#EC8558" points="76.7636 2.8283 79.5086 2.7593 79.4576 0.7913 76.7156 0.8593"></polygon>
                        <polygon id="Fill-55" fill="#D46F41" points="79.5088 2.7589 80.6588 2.7319 80.6118 0.7619 79.4578 0.7909"></polygon>
                        <path d="M56.7119,106.091 C43.7399,119.063 22.7099,119.063 9.7369,106.092 C-3.2301,93.12 -3.2321,72.09 9.7369,59.117 C22.7099,46.147 43.7409,46.147 56.7129,59.117 C69.6839,72.088 69.6819,93.12 56.7119,106.091" id="Fill-57" fill="#0085FF"></path>
                        <g id="Group-61" transform="translate(2.000000, 51.000000)"></g>
                        <path d="M55.4668,104.8468 C43.1838,117.1308 23.2678,117.1308 10.9848,104.8468 C-1.2992,92.5638 -1.2992,72.6468 10.9828,60.3638 C23.2678,48.0788 43.1858,48.0788 55.4688,60.3628 C67.7518,72.6458 67.7518,92.5638 55.4668,104.8468" id="Fill-62" fill="#50ABFF"></path>
                        <path d="M64.6386,81.0089 C63.1086,78.6039 61.2716,76.2869 59.1206,74.1369 C46.8366,61.8529 29.2206,59.5489 19.7796,68.9919 C10.3376,78.4359 12.6416,96.0489 24.9246,108.3319 C27.1596,110.5679 29.5736,112.4669 32.0806,114.0309 C40.5086,114.3369 49.0346,111.2799 55.4666,104.8469 C62.0136,98.2989 65.0706,89.5819 64.6386,81.0089" id="Fill-64" fill="#0085FF" opacity="0.5"></path>
                        <path d="M53.5332,103.8048 C52.5972,104.7418 51.0802,104.7418 50.1412,103.8048 L46.1592,99.8218 C45.2232,98.8848 45.2222,97.3678 46.1592,96.4308 L47.0512,95.5378 C47.9882,94.6028 49.5062,94.6028 50.4402,95.5398 L54.4252,99.5238 C55.3612,100.4598 55.3612,101.9768 54.4252,102.9128 L53.5332,103.8048 Z" id="Fill-66" fill="#0085FF"></path>
                        <path d="M48.7461,98.1261 C40.1751,106.6971 26.2771,106.6971 17.7051,98.1241 C9.1351,89.5531 9.1341,75.6561 17.7051,67.0841 C26.2761,58.5121 40.1751,58.5121 48.7461,67.0841 C57.3181,75.6551 57.3161,89.5531 48.7461,98.1261" id="Fill-68" fill="#0085FF"></path>
                        <path d="M47.5117,96.8898 C39.6207,104.7798 26.8297,104.7798 18.9407,96.8898 C11.0507,89.0018 11.0507,76.2078 18.9397,68.3198 C26.8297,60.4298 39.6217,60.4308 47.5117,68.3188 C55.4007,76.2078 55.3987,88.9998 47.5117,96.8898" id="Fill-70" fill="#FFFFFF"></path>
                        <path d="M20.5586,69.9386 C27.5546,62.9446 38.8966,62.9426 45.8916,69.9386 C52.8866,76.9346 52.8866,88.2776 45.8916,95.2726 C38.8966,102.2666 27.5546,102.2686 20.5586,95.2726 C13.5626,88.2766 13.5626,76.9346 20.5586,69.9386" id="Fill-72" fill="#F99B1C"></path>
                        <path d="M33.2265,64.9357 C28.5065,64.9357 24.0695,66.7737 20.7315,70.1117 C13.8415,76.9997 13.8415,88.2107 20.7315,95.0997 C24.0685,98.4377 28.5045,100.2757 33.2245,100.2757 C37.9445,100.2757 42.3815,98.4377 45.7185,95.0997 C52.6085,88.2107 52.6085,77.0007 45.7185,70.1117 C42.3825,66.7737 37.9465,64.9357 33.2265,64.9357 M33.2245,100.7627 C28.3745,100.7627 23.8155,98.8737 20.3855,95.4457 C13.3065,88.3657 13.3065,76.8457 20.3855,69.7657 C23.8165,66.3367 28.3755,64.4487 33.2265,64.4487 C38.0765,64.4487 42.6355,66.3367 46.0645,69.7657 C53.1435,76.8467 53.1435,88.3657 46.0645,95.4457 C42.6345,98.8737 38.0745,100.7627 33.2245,100.7627" id="Fill-74" fill="#F99B1C"></path>
                        <path d="M24.0468,97.9679 C30.9278,102.0819 39.9658,101.1979 45.8918,95.2729 C51.8178,89.3479 52.7048,80.3069 48.5888,73.4279 C41.7058,69.3119 32.6698,70.1969 26.7438,76.1239 C20.8178,82.0509 19.9338,91.0869 24.0468,97.9679" id="Fill-76" fill="#FEC00F"></path>
                        <path d="M36.457,85.559 C36.457,85.205 36.392,84.892 36.256,84.634 C36.121,84.374 35.943,84.151 35.714,83.966 C35.483,83.779 35.217,83.618 34.903,83.481 C34.596,83.344 34.268,83.217 33.914,83.101 L33.549,88.466 C34.016,88.424 34.429,88.321 34.792,88.158 C35.155,88 35.46,87.79 35.706,87.54 C35.954,87.291 36.142,86.996 36.267,86.663 C36.395,86.328 36.457,85.962 36.457,85.559 L36.457,85.559 Z M30.479,78.406 C30.479,78.752 30.54,79.054 30.661,79.305 C30.783,79.559 30.949,79.785 31.168,79.978 C31.386,80.174 31.635,80.341 31.921,80.488 C32.209,80.628 32.524,80.758 32.856,80.876 L33.184,76.015 C32.717,76.059 32.312,76.152 31.969,76.295 C31.633,76.441 31.35,76.619 31.128,76.833 C30.911,77.046 30.746,77.294 30.641,77.561 C30.532,77.83 30.479,78.111 30.479,78.406 L30.479,78.406 Z M32.221,90.073 C31.356,89.993 30.561,89.781 29.848,89.429 C29.133,89.083 28.52,88.637 28,88.099 L28.569,87.218 C28.621,87.138 28.697,87.074 28.788,87.026 C28.881,86.972 28.978,86.95 29.078,86.95 C29.215,86.95 29.367,87.017 29.54,87.152 C29.714,87.291 29.925,87.444 30.178,87.621 C30.429,87.795 30.728,87.968 31.079,88.136 C31.424,88.296 31.843,88.408 32.329,88.466 L32.728,82.746 C32.231,82.594 31.732,82.427 31.25,82.234 C30.763,82.044 30.329,81.796 29.942,81.492 C29.561,81.183 29.252,80.801 29.018,80.333 C28.788,79.873 28.669,79.29 28.669,78.588 C28.669,78.064 28.772,77.552 28.976,77.05 C29.18,76.553 29.479,76.105 29.87,75.717 C30.259,75.329 30.743,75.007 31.319,74.762 C31.891,74.515 32.556,74.386 33.301,74.386 L33.407,72.816 C33.422,72.68 33.476,72.558 33.569,72.452 C33.662,72.344 33.788,72.29 33.945,72.29 L34.656,72.29 L34.509,74.421 C35.261,74.516 35.91,74.706 36.457,75.003 C37.003,75.299 37.491,75.655 37.921,76.069 L37.458,76.779 C37.314,76.997 37.148,77.103 36.962,77.103 C36.86,77.103 36.74,77.057 36.592,76.967 C36.445,76.879 36.267,76.773 36.055,76.655 C35.848,76.538 35.607,76.42 35.338,76.302 C35.063,76.183 34.75,76.098 34.4,76.048 L34.043,81.261 C34.56,81.42 35.066,81.594 35.573,81.78 C36.075,81.966 36.528,82.207 36.929,82.505 C37.33,82.799 37.659,83.167 37.9,83.615 C38.155,84.057 38.276,84.61 38.276,85.271 C38.276,85.919 38.17,86.528 37.954,87.099 C37.737,87.669 37.422,88.17 37.014,88.601 C36.6,89.033 36.092,89.385 35.494,89.655 C34.894,89.925 34.21,90.061 33.438,90.061 L33.312,91.988 C33.301,92.123 33.243,92.247 33.144,92.351 C33.046,92.454 32.924,92.506 32.774,92.506 L32.061,92.506 L32.221,90.073 Z" id="Fill-40" fill="#F99B1C"></path>
                    </g>
                </g>
            </g>
        </g>
    </g>
</svg>