<?xml version="1.0" encoding="UTF-8"?>
<svg width="155px" height="127px" viewBox="0 0 155 127" version="1.1" xmlns="http://www.w3.org/2000/svg" xmlns:xlink="http://www.w3.org/1999/xlink">
    <!-- Generator: Sketch 59.1 (86144) - https://sketch.com -->
    <title>how_do_1_i</title>
    <desc>Created with Sketch.</desc>
    <defs>
        <polygon id="path-1" points="0.568284895 0.825 107.476301 0.825 107.476301 107.7462 0.568284895 107.7462"></polygon>
    </defs>
    <g id="current" stroke="none" stroke-width="1" fill="none" fill-rule="evenodd">
        <g id="02-iq_main-calculator-silver" transform="translate(-274.000000, -4588.000000)">
            <g id="Group-23" transform="translate(0.000000, 3452.000000)">
                <g id="how_do_1_i" transform="translate(274.000000, 1135.000000)">
                    <g id="Group-3" transform="translate(25.000000, 0.175000)">
                        <mask id="mask-2" fill="white">
                            <use xlink:href="#path-1"></use>
                        </mask>
                        <g id="Clip-2"></g>
                        <path d="M54.0193,25.7592 C69.7723,25.7592 82.5403,38.5372 82.5403,54.2852 C82.5403,70.0382 69.7693,82.8132 54.0193,82.8112 C38.2643,82.8112 25.4983,70.0382 25.4993,54.2872 C25.4993,38.5372 38.2663,25.7582 54.0193,25.7592 M3.3123,63.1422 L9.8723,63.1422 C10.3463,65.4492 10.9813,67.6872 11.7773,69.8562 L6.2913,73.0212 C4.9813,73.7862 4.5303,75.4612 5.2853,76.7872 L10.7823,86.3032 C11.5523,87.6202 13.2363,88.0662 14.5383,87.3132 L20.2373,84.0202 C21.7693,85.7672 23.4433,87.3972 25.2313,88.8862 L22.0553,94.3752 C21.2993,95.7012 21.7523,97.3772 23.0683,98.1382 L32.5863,103.6412 C33.8943,104.3882 35.5733,103.9412 36.3393,102.6252 L39.6213,96.9302 C41.8093,97.6822 44.0713,98.2432 46.3843,98.6452 L46.3843,104.9912 C46.3843,106.5102 47.6113,107.7442 49.1383,107.7462 L60.1223,107.7442 C61.6523,107.7442 62.8853,106.5102 62.8853,104.9912 L62.8853,98.4272 C65.1803,97.9652 67.4223,97.3322 69.5923,96.5342 L72.7513,102.0162 C73.5183,103.3402 75.1953,103.7832 76.5273,103.0242 L86.0443,97.5202 C87.3563,96.7722 87.8013,95.0862 87.0443,93.7682 L83.7533,88.0662 C85.4993,86.5342 87.1283,84.8732 88.6143,83.0842 L94.1023,86.2562 C95.4323,87.0122 97.1053,86.5532 97.8693,85.2382 L103.3763,75.7252 C104.1263,74.4102 103.6803,72.7262 102.3643,71.9692 L96.6733,68.6822 C97.4113,66.4982 97.9833,64.2402 98.3783,61.9252 L104.7213,61.9252 C106.2473,61.9252 107.476301,60.6882 107.476301,59.1732 L107.476301,48.1802 C107.476301,46.6592 106.2483,45.4312 104.7193,45.4312 L98.1543,45.4322 C97.6983,43.1212 97.0633,40.8732 96.2643,38.7112 L101.7523,35.5462 C103.0693,34.7832 103.5093,33.1062 102.7543,31.7942 L97.2643,22.2722 C96.5083,20.9592 94.8213,20.5042 93.5033,21.2662 L87.8033,24.5532 C86.2613,22.8052 84.5983,21.1652 82.8133,19.6842 L85.9843,14.1862 C86.7443,12.8732 86.2963,11.1902 84.9823,10.4372 L75.4513,4.9422 C74.1383,4.1812 72.4563,4.6282 71.7063,5.9412 L68.4153,11.6332 C66.2233,10.8982 63.9773,10.3232 61.6553,9.9342 L61.6573,3.5742 C61.6523,2.0582 60.4253,0.8302 58.9153,0.8352 L47.9083,0.8242 C46.3933,0.8242 45.1623,2.0582 45.1593,3.5742 L45.1603,10.1452 C42.8643,10.6082 40.6223,11.2422 38.4503,12.0342 L35.2753,6.5562 C34.5143,5.2362 32.8503,4.7952 31.5273,5.5492 L21.9983,11.0482 C20.6903,11.8012 20.2393,13.4902 21.0003,14.8052 L24.2923,20.5042 C22.5373,22.0352 20.9083,23.7022 19.4203,25.4892 L13.9243,22.3132 C12.6043,21.5552 10.9373,22.0132 10.1623,23.3232 L4.6713,32.8542 C3.9153,34.1592 4.3693,35.8512 5.6723,36.6042 L11.3753,39.8952 C10.6283,42.0692 10.0633,44.3342 9.6593,46.6412 L3.3133,46.6412 C1.7973,46.6412 0.5713,47.8772 0.568284895,49.3982 L0.568284895,60.3942 C0.5633,61.9162 1.8003,63.1422 3.3123,63.1422" id="Fill-1" fill="#0085FF" mask="url(#mask-2)"></path>
                    </g>
                    <path d="M79.9783,25.9664 C95.2833,26.4674 107.5403,39.0274 107.5403,54.4604 C107.5403,69.8964 95.2833,82.4584 79.9743,82.9584 L79.9783,107.9214 L85.1223,107.9194 C86.6523,107.9194 87.8853,106.6854 87.8853,105.1664 L87.8853,98.6024 C90.1803,98.1404 92.4223,97.5074 94.5923,96.7094 L97.7513,102.1914 C98.5183,103.5154 100.1953,103.9584 101.5273,103.1984 L111.0443,97.6954 C112.3563,96.9464 112.8013,95.2614 112.0443,93.9434 L108.7533,88.2404 C110.4993,86.7094 112.1283,85.0484 113.6143,83.2594 L119.1023,86.4314 C120.4323,87.1874 122.1053,86.7284 122.8693,85.4134 L128.3763,75.9004 C129.1263,74.5854 128.6803,72.9014 127.3643,72.1444 L121.6733,68.8574 C122.4113,66.6734 122.9833,64.4154 123.3783,62.1004 L129.7213,62.1004 C131.2473,62.1004 132.4773,60.8624 132.476301,59.3484 L132.476301,48.3554 C132.4773,46.8344 131.2493,45.6064 129.7193,45.6064 L123.1543,45.6074 C122.6983,43.2964 122.0633,41.0484 121.2643,38.8864 L126.7523,35.7214 C128.0693,34.9584 128.5093,33.2804 127.7543,31.9694 L122.2643,22.4464 C121.5083,21.1344 119.8213,20.6794 118.5033,21.4414 L112.8033,24.7284 C111.2613,22.9804 109.5983,21.3404 107.8133,19.8594 L110.9843,14.3614 C111.7443,13.0484 111.2963,11.3644 109.9823,10.6124 L100.4513,5.1164 C99.1383,4.3564 97.4573,4.8034 96.7063,6.1154 L93.4153,11.8084 C91.2233,11.0724 88.9773,10.4984 86.6553,10.1094 L86.6573,3.7494 C86.6523,2.2334 85.4253,1.0054 83.9153,1.0104 L79.9783,1.0034 L79.9783,25.9664 Z" id="Fill-4" fill="#50ABFF"></path>
                    <path d="M79.0193,25.9342 C94.7723,25.9342 107.5403,38.7122 107.5403,54.4602 C107.5403,70.2132 94.7693,82.9882 79.0193,82.9862 C63.2643,82.9862 50.4983,70.2132 50.4993,54.4622 C50.4993,38.7122 63.2663,25.9332 79.0193,25.9342 M79.0223,89.1912 C98.2063,89.1912 113.7503,73.6442 113.7503,54.4582 C113.7503,35.2832 98.2063,19.7262 79.0223,19.7262 C59.8383,19.7262 44.2823,35.2832 44.2853,54.4582 C44.2823,73.6462 59.8383,89.1912 79.0223,89.1912" id="Fill-6" fill="#0085FF"></path>
                    <path d="M79.0222,89.1911 C79.3412,89.1911 79.6592,89.1831 79.9742,89.1701 L79.9742,82.9591 C79.6582,82.9681 79.3412,82.9861 79.0192,82.9861 C63.2642,82.9861 50.4982,70.2131 50.5002,54.4621 C50.5002,38.7121 63.2662,25.9331 79.0192,25.9341 C79.3442,25.9331 79.6592,25.9531 79.9782,25.9661 L79.9742,19.7491 C79.6592,19.7411 79.3412,19.7261 79.0222,19.7261 C59.8382,19.7261 44.2822,35.2831 44.2852,54.4591 C44.2822,73.6461 59.8382,89.1911 79.0222,89.1911" id="Fill-8" fill="#0071D9"></path>
                    <path d="M141.6277,37.3541 C139.5937,36.7691 138.4177,34.6441 139.0017,32.6121 C139.5867,30.5741 141.7077,29.3981 143.7397,29.9821 C145.7767,30.5661 146.9557,32.6911 146.3717,34.7261 C145.7897,36.7601 143.6637,37.9371 141.6277,37.3541 M154.2357,34.6421 L152.4247,34.1241 C152.0067,34.0031 151.6477,33.5481 151.6287,33.1111 L151.5267,32.1991 C151.4447,31.7701 151.6927,31.2461 152.0727,31.0341 L153.7207,30.1211 C154.1017,29.9121 154.2397,29.4251 154.0287,29.0451 L152.6207,26.5001 C152.4077,26.1181 151.9247,25.9791 151.5397,26.1881 L149.8977,27.1031 C149.5147,27.3141 148.9407,27.2481 148.6157,26.9501 L147.8987,26.3781 C147.5377,26.1311 147.3417,25.5851 147.4607,25.1671 L147.9827,23.3611 C148.1007,22.9411 147.8567,22.4981 147.4377,22.3771 L144.6417,21.5741 C144.2217,21.4541 143.7767,21.7011 143.6597,22.1191 L143.1407,23.9281 C143.0207,24.3461 142.5647,24.7051 142.1287,24.7241 L141.2167,24.8261 C140.7857,24.9091 140.2617,24.6591 140.0497,24.2771 L139.1397,22.6321 C138.9307,22.2501 138.4427,22.1131 138.0607,22.3241 L135.5157,23.7361 C135.1347,23.9441 134.9937,24.4311 135.2077,24.8111 L136.1197,26.4581 C136.3277,26.8401 136.2617,27.4141 135.9697,27.7341 L135.3987,28.4551 C135.1487,28.8161 134.6037,29.0111 134.1857,28.8921 L132.3727,28.3731 C131.9587,28.2521 131.5137,28.4981 131.3947,28.9161 L130.5917,31.7111 C130.4737,32.1301 130.7197,32.5751 131.1367,32.6941 L132.9447,33.2131 C133.3647,33.3331 133.7217,33.7871 133.7427,34.2231 L133.8457,35.1381 C133.9237,35.5671 133.6767,36.0901 133.2947,36.3031 L131.6517,37.2141 C131.2687,37.4251 131.1287,37.9101 131.3417,38.2911 L132.7497,40.8391 C132.9627,41.2181 133.4487,41.3591 133.8277,41.1481 L135.4737,40.2341 C135.8557,40.0221 136.4317,40.0911 136.7547,40.3861 L137.4717,40.9581 C137.8327,41.2051 138.0267,41.7481 137.9077,42.1701 L137.3897,43.9761 C137.2687,44.3981 137.5117,44.8381 137.9337,44.9601 L140.7267,45.7621 C141.1487,45.8821 141.5927,45.6401 141.7107,45.2171 L142.2317,43.4101 C142.3527,42.9901 142.8057,42.6321 143.2397,42.6111 L144.1547,42.5101 C144.5847,42.4291 145.1067,42.6751 145.3187,43.0571 L146.2287,44.7051 C146.4447,45.0841 146.9277,45.2221 147.3067,45.0151 L149.8527,43.6031 C150.2357,43.3911 150.3727,42.9041 150.1597,42.5241 L149.2487,40.8781 C149.0387,40.4981 149.1077,39.9211 149.4017,39.6011 L149.9737,38.8801 C150.2217,38.5191 150.7667,38.3261 151.1867,38.4461 L152.9937,38.9641 C153.4147,39.0841 153.8567,38.8391 153.9787,38.4181 L154.7787,35.6241 C154.8997,35.2041 154.6547,34.7631 154.2357,34.6421" id="Fill-10" fill="#50ABFF"></path>
                    <path d="M20.2107,114.2799 C14.5437,112.6539 11.2707,106.7369 12.8977,101.0739 C14.5227,95.3999 20.4337,92.1229 26.0977,93.7519 C31.7707,95.3749 35.0507,101.2909 33.4237,106.9609 C31.8037,112.6289 25.8807,115.9059 20.2107,114.2799 M45.2197,105.8809 L41.7617,104.8879 C40.9597,104.6579 40.2767,103.7889 40.2397,102.9519 L40.0447,101.2069 C39.8907,100.3879 40.3637,99.3889 41.0897,98.9829 L44.2327,97.2419 C44.9627,96.8419 45.2287,95.9099 44.8237,95.1859 L42.1337,90.3229 C41.7287,89.5949 40.8057,89.3289 40.0707,89.7299 L36.9317,91.4759 C36.2017,91.8769 35.1067,91.7529 34.4867,91.1819 L33.1137,90.0929 C32.4257,89.6189 32.0537,88.5809 32.2807,87.7809 L33.2767,84.3269 C33.5007,83.5269 33.0347,82.6789 32.2357,82.4489 L26.8937,80.9139 C26.0927,80.6849 25.2437,81.1579 25.0187,81.9559 L24.0267,85.4099 C23.7977,86.2099 22.9297,86.8939 22.0937,86.9319 L20.3517,87.1269 C19.5307,87.2809 18.5297,86.8079 18.1217,86.0779 L16.3857,82.9359 C15.9827,82.2089 15.0537,81.9439 14.3257,82.3449 L9.4627,85.0449 C8.7357,85.4429 8.4677,86.3719 8.8747,87.0969 L10.6147,90.2439 C11.0167,90.9729 10.8877,92.0689 10.3267,92.6829 L9.2367,94.0599 C8.7607,94.7489 7.7197,95.1229 6.9197,94.8919 L3.4607,93.9019 C2.6667,93.6719 1.8177,94.1369 1.5897,94.9379 L0.0577,100.2819 C-0.1703,101.0809 0.3007,101.9269 1.0967,102.1569 L4.5507,103.1479 C5.3527,103.3779 6.0347,104.2419 6.0757,105.0759 L6.2727,106.8239 C6.4217,107.6419 5.9497,108.6419 5.2217,109.0489 L2.0777,110.7909 C1.3487,111.1929 1.0827,112.1199 1.4887,112.8469 L4.1797,117.7129 C4.5847,118.4369 5.5147,118.7019 6.2387,118.3029 L9.3807,116.5579 C10.1107,116.1559 11.2107,116.2869 11.8267,116.8469 L13.1977,117.9389 C13.8877,118.4149 14.2607,119.4499 14.0337,120.2549 L13.0407,123.7089 C12.8067,124.5099 13.2767,125.3549 14.0797,125.5849 L19.4177,127.1169 C20.2207,127.3449 21.0687,126.8809 21.2977,126.0759 L22.2877,122.6239 C22.5207,121.8199 23.3857,121.1379 24.2177,121.0989 L25.9637,120.9049 C26.7847,120.7529 27.7817,121.2219 28.1887,121.9529 L29.9257,125.0969 C30.3387,125.8229 31.2607,126.0869 31.9867,125.6879 L36.8477,122.9909 C37.5757,122.5879 37.8447,121.6579 37.4337,120.9319 L35.6947,117.7889 C35.2927,117.0579 35.4257,115.9609 35.9857,115.3479 L37.0777,113.9699 C37.5517,113.2829 38.5927,112.9129 39.3947,113.1439 L42.8507,114.1339 C43.6517,114.3629 44.4967,113.8919 44.7287,113.0929 L46.2577,107.7539 C46.4877,106.9519 46.0227,106.1089 45.2197,105.8809" id="Fill-12" fill="#0085FF"></path>
                    <path d="M109.2615,54.4567 C109.2615,71.1557 95.7225,84.6987 79.0215,84.6987 C62.3165,84.6987 48.7815,71.1557 48.7815,54.4567 C48.7815,37.7597 62.3165,24.2217 79.0215,24.2217 C95.7225,24.2217 109.2615,37.7597 109.2615,54.4567" id="Fill-14" fill="#FEC00F"></path>
                    <path d="M108.3406,54.4567 C108.3406,70.6447 95.2136,83.7747 79.0216,83.7747 C62.8306,83.7747 49.7036,70.6447 49.7036,54.4567 C49.7036,38.2667 62.8306,25.1447 79.0216,25.1447 C95.2136,25.1447 108.3406,38.2667 108.3406,54.4567" id="Fill-16" fill="#F99B1C"></path>
                    <path d="M102.1062,54.4567 C102.1062,67.2077 91.7742,77.5407 79.0212,77.5407 C66.2682,77.5407 55.9342,67.2077 55.9342,54.4567 C55.9342,41.7097 66.2682,31.3737 79.0212,31.3737 C91.7742,31.3737 102.1062,41.7097 102.1062,54.4567" id="Fill-18" fill="#FEC00F"></path>
                    <path d="M84.8787,60.0446 C84.8787,59.4196 84.7647,58.8676 84.5247,58.4096 C84.2857,57.9506 83.9727,57.5566 83.5667,57.2316 C83.1587,56.8996 82.6877,56.6166 82.1357,56.3736 C81.5937,56.1336 81.0147,55.9076 80.3897,55.7026 L79.7427,65.1786 C80.5677,65.1066 81.2977,64.9216 81.9387,64.6346 C82.5807,64.3566 83.1187,63.9856 83.5527,63.5446 C83.9907,63.1046 84.3227,62.5806 84.5427,61.9956 C84.7707,61.4016 84.8787,60.7576 84.8787,60.0446 L84.8787,60.0446 Z M74.3227,47.4096 C74.3227,48.0236 74.4297,48.5546 74.6427,48.9976 C74.8607,49.4476 75.1537,49.8476 75.5377,50.1876 C75.9247,50.5336 76.3607,50.8296 76.8667,51.0876 C77.3767,51.3376 77.9347,51.5666 78.5207,51.7726 L79.0987,43.1896 C78.2747,43.2656 77.5607,43.4296 76.9527,43.6836 C76.3607,43.9416 75.8577,44.2566 75.4677,44.6346 C75.0847,45.0096 74.7947,45.4486 74.6067,45.9206 C74.4167,46.3946 74.3227,46.8906 74.3227,47.4096 L74.3227,47.4096 Z M77.3987,68.0156 C75.8707,67.8746 74.4677,67.5016 73.2087,66.8796 C71.9447,66.2696 70.8627,65.4816 69.9447,64.5296 L70.9497,62.9746 C71.0397,62.8336 71.1737,62.7206 71.3337,62.6346 C71.4987,62.5406 71.6707,62.4986 71.8477,62.4986 C72.0897,62.4986 72.3577,62.6186 72.6617,62.8566 C72.9697,63.1046 73.3417,63.3736 73.7897,63.6866 C74.2327,63.9936 74.7607,64.2976 75.3807,64.5966 C75.9907,64.8786 76.7317,65.0746 77.5897,65.1786 L78.2967,55.0746 C77.4167,54.8086 76.5367,54.5136 75.6867,54.1716 C74.8217,53.8366 74.0577,53.3986 73.3727,52.8596 C72.7007,52.3156 72.1547,51.6416 71.7427,50.8146 C71.3337,50.0006 71.1237,48.9756 71.1237,47.7326 C71.1237,46.8076 71.3087,45.9016 71.6647,45.0176 C72.0297,44.1386 72.5567,43.3486 73.2467,42.6636 C73.9327,41.9766 74.7877,41.4086 75.8057,40.9766 C76.8147,40.5406 77.9897,40.3106 79.3057,40.3106 L79.4917,37.5386 C79.5187,37.2986 79.6137,37.0836 79.7787,36.8966 C79.9447,36.7066 80.1657,36.6106 80.4447,36.6106 L81.6977,36.6106 L81.4397,40.3746 C82.7667,40.5406 83.9117,40.8786 84.8787,41.4016 C85.8447,41.9236 86.7057,42.5526 87.4657,43.2826 L86.6447,44.5366 C86.3937,44.9226 86.1007,45.1086 85.7707,45.1086 C85.5927,45.1086 85.3787,45.0306 85.1157,44.8696 C84.8577,44.7156 84.5427,44.5286 84.1687,44.3176 C83.8047,44.1136 83.3787,43.9046 82.9027,43.6936 C82.4187,43.4836 81.8657,43.3356 81.2487,43.2456 L80.6157,52.4546 C81.5267,52.7356 82.4247,53.0426 83.3187,53.3696 C84.2057,53.6996 85.0047,54.1246 85.7137,54.6496 C86.4247,55.1706 87.0037,55.8206 87.4307,56.6106 C87.8787,57.3906 88.0927,58.3666 88.0927,59.5346 C88.0927,60.6806 87.9047,61.7556 87.5227,62.7636 C87.1397,63.7716 86.5837,64.6566 85.8637,65.4176 C85.1317,66.1776 84.2327,66.8006 83.1777,67.2776 C82.1177,67.7556 80.9107,67.9946 79.5497,67.9946 L79.3267,71.3976 C79.3057,71.6386 79.2037,71.8556 79.0297,72.0396 C78.8547,72.2206 78.6397,72.3146 78.3757,72.3146 L77.1157,72.3146 L77.3987,68.0156 Z" id="Fill-20" fill="#F99B1C"></path>
                    <path d="M14.95,101.6618 C16.251,97.1238 20.978,94.5028 25.51,95.8048 C30.048,97.1048 32.673,101.8348 31.37,106.3728 C30.075,110.9048 25.337,113.5278 20.802,112.2258 C16.267,110.9268 13.649,106.1928 14.95,101.6618 M35.417,107.5328 C37.358,100.7618 33.443,93.6968 26.667,91.7588 C19.904,89.8128 12.846,93.7258 10.903,100.5018 C8.963,107.2668 12.871,114.3308 19.639,116.2728 C26.408,118.2138 33.481,114.2988 35.417,107.5328" id="Fill-22" fill="#0071D9"></path>
                    <path d="M25.1375,72.5504 C24.8625,72.5504 24.6045,72.3804 24.5055,72.1064 L23.0815,68.1404 C22.9565,67.7914 23.1385,67.4064 23.4875,67.2814 C23.8325,67.1594 24.2205,67.3374 24.3455,67.6874 L25.7695,71.6534 C25.8945,72.0014 25.7125,72.3864 25.3645,72.5114 C25.2895,72.5374 25.2125,72.5504 25.1375,72.5504" id="Fill-24" fill="#70A5C5"></path>
                    <path d="M18.3503,79.9557 C18.0753,79.9557 17.8173,79.7857 17.7183,79.5117 C17.5933,79.1627 17.7753,78.7777 18.1233,78.6527 L22.0913,77.2277 C22.4403,77.1057 22.8253,77.2847 22.9503,77.6337 C23.0753,77.9817 22.8943,78.3667 22.5443,78.4917 L18.5773,79.9167 C18.5023,79.9427 18.4253,79.9557 18.3503,79.9557" id="Fill-26" fill="#70A5C5"></path>
                    <path d="M22.1179,74.8317 C22.0209,74.8317 21.9239,74.8107 21.8319,74.7687 L18.0199,72.9697 C17.6839,72.8107 17.5409,72.4107 17.6989,72.0757 C17.8579,71.7387 18.2629,71.6007 18.5929,71.7547 L22.4039,73.5537 C22.7399,73.7117 22.8839,74.1117 22.7249,74.4467 C22.6099,74.6897 22.3689,74.8317 22.1179,74.8317" id="Fill-28" fill="#70A5C5"></path>
                    <path d="M136.3308,55.5026 C136.2338,55.5026 136.1378,55.4816 136.0448,55.4396 C135.7098,55.2806 135.5658,54.8806 135.7238,54.5456 L137.5198,50.7336 C137.6808,50.3976 138.0808,50.2586 138.4138,50.4126 C138.7488,50.5706 138.8928,50.9716 138.7348,51.3066 L136.9378,55.1176 C136.8228,55.3606 136.5818,55.5026 136.3308,55.5026" id="Fill-30" fill="#70A5C5"></path>
                    <path d="M148.1638,51.2545 C148.0668,51.2545 147.9708,51.2335 147.8778,51.1915 L144.0638,49.3925 C143.7288,49.2335 143.5848,48.8335 143.7428,48.4985 C143.9028,48.1615 144.3038,48.0235 144.6368,48.1775 L148.4498,49.9765 C148.7848,50.1345 148.9298,50.5345 148.7708,50.8695 C148.6558,51.1125 148.4148,51.2545 148.1638,51.2545" id="Fill-32" fill="#70A5C5"></path>
                    <path d="M143.2996,56.1803 C143.0246,56.1803 142.7666,56.0103 142.6676,55.7363 L141.2436,51.7693 C141.1186,51.4203 141.3006,51.0353 141.6496,50.9103 C141.9986,50.7873 142.3816,50.9673 142.5076,51.3163 L143.9316,55.2833 C144.0566,55.6313 143.8746,56.0163 143.5266,56.1413 C143.4506,56.1673 143.3746,56.1803 143.2996,56.1803" id="Fill-34" fill="#70A5C5"></path>
                </g>
            </g>
        </g>
    </g>
</svg>