<?xml version="1.0" encoding="UTF-8"?>
<svg width="139px" height="147px" viewBox="0 0 139 147" version="1.1" xmlns="http://www.w3.org/2000/svg" xmlns:xlink="http://www.w3.org/1999/xlink">
    <!-- Generator: Sketch 59.1 (86144) - https://sketch.com -->
    <title>how_do_2_i</title>
    <desc>Created with Sketch.</desc>
    <defs>
        <polygon id="path-1" points="0.5479 0.8212 37.7699 0.8212 37.7699 16 0.5479 16"></polygon>
        <polygon id="path-3" points="0 147 138.114 147 138.114 0.854 0 0.854"></polygon>
    </defs>
    <g id="current" stroke="none" stroke-width="1" fill="none" fill-rule="evenodd">
        <g id="02-iq_main-calculator-silver" transform="translate(-651.000000, -4578.000000)">
            <g id="Group-23" transform="translate(0.000000, 3452.000000)">
                <g id="how_do_2_i" transform="translate(651.000000, 1125.000000)">
                    <polygon id="Fill-1" fill="#DCE4E7" points="66.548 59.061 68.622 59.061 68.622 39.396 66.548 39.396"></polygon>
                    <polygon id="Fill-2" fill="#DCE4E7" points="66.548 127.339 68.622 127.339 68.622 107.675 66.548 107.675"></polygon>
                    <polygon id="Fill-3" fill="#DCE4E7" points="91.892 84.404 111.557 84.404 111.557 82.33 91.892 82.33"></polygon>
                    <polygon id="Fill-4" fill="#DCE4E7" points="23.615 84.404 43.279 84.404 43.279 82.33 23.615 82.33"></polygon>
                    <polygon id="Fill-5" fill="#DCE4E7" points="81.9066 70.5132 80.4396 69.0462 91.4326 58.0542 92.8996 59.5212"></polygon>
                    <polygon id="Fill-6" fill="#DCE4E7" points="43.7386 108.6802 42.2716 107.2132 53.2636 96.2222 54.7306 97.6892"></polygon>
                    <polygon id="Fill-7" fill="#DCE4E7" points="91.433 108.6802 80.44 97.6892 81.907 96.2222 92.9 107.2132"></polygon>
                    <polygon id="Fill-8" fill="#DCE4E7" points="53.264 70.5132 42.272 59.5212 43.739 58.0542 54.731 69.0462"></polygon>
                    <polygon id="Fill-9" fill="#FFF200" points="25.548 139.723 28.331 139.723 28.331 135.329 25.548 135.329"></polygon>
                    <polygon id="Fill-10" fill="#FFF200" points="59.984 139.723 62.77 139.723 62.77 135.329 59.984 135.329"></polygon>
                    <g id="Group-43" transform="translate(0.000000, 0.146000)">
                        <g id="Group-13" transform="translate(25.000000, 131.000000)">
                            <mask id="mask-2" fill="white">
                                <use xlink:href="#path-1"></use>
                            </mask>
                            <g id="Clip-12"></g>
                            <path d="M37.7699,8.4102 C37.7699,12.5982 29.4349,16.0002 19.1589,16.0002 C8.8779,16.0002 0.5479,12.5982 0.5479,8.4102 C0.5479,4.2192 8.8779,0.8212 19.1589,0.8212 C29.4349,0.8212 37.7699,4.2192 37.7699,8.4102" id="Fill-11" fill="#FEC011" mask="url(#mask-2)"></path>
                        </g>
                        <path d="M62.7699,135.3037 C62.7699,139.4957 54.4349,142.8947 44.1589,142.8947 C33.8779,142.8947 25.5479,139.4957 25.5479,135.3037 C25.5479,131.1117 33.8779,127.7157 44.1589,127.7157 C54.4349,127.7157 62.7699,131.1117 62.7699,135.3037" id="Fill-14" fill="#F6871F"></path>
                        <path d="M58.8148,134.2325 C58.8148,136.9415 52.2508,139.1375 44.1588,139.1375 C36.0608,139.1375 29.5018,136.9415 29.5018,134.2325 C29.5018,131.5245 36.0608,129.3295 44.1588,129.3295 C52.2508,129.3295 58.8148,131.5245 58.8148,134.2325" id="Fill-16" fill="#FFF200"></path>
                        <mask id="mask-4" fill="white">
                            <use xlink:href="#path-3"></use>
                        </mask>
                        <g id="Clip-19"></g>
                        <polygon id="Fill-18" fill="#FFF200" mask="url(#mask-4)" points="23.495 132.546 26.278 132.546 26.278 128.153 23.495 128.153"></polygon>
                        <polygon id="Fill-20" fill="#FFF200" mask="url(#mask-4)" points="57.93 132.546 60.714 132.546 60.714 128.153 57.93 128.153"></polygon>
                        <path d="M60.7142,132.3799 C60.7142,136.5689 52.3832,139.9699 42.1072,139.9699 C31.8272,139.9699 23.4942,136.5689 23.4942,132.3799 C23.4942,128.1879 31.8272,124.7879 42.1072,124.7879 C52.3832,124.7879 60.7142,128.1879 60.7142,132.3799" id="Fill-21" fill="#FEC011" mask="url(#mask-4)"></path>
                        <path d="M60.7142,128.2754 C60.7142,132.4694 52.3832,135.8654 42.1072,135.8654 C31.8272,135.8654 23.4942,132.4694 23.4942,128.2754 C23.4942,124.0824 31.8272,120.6834 42.1072,120.6834 C52.3832,120.6834 60.7142,124.0824 60.7142,128.2754" id="Fill-22" fill="#F6871F" mask="url(#mask-4)"></path>
                        <path d="M56.7601,127.2032 C56.7601,129.9112 50.1981,132.1072 42.1071,132.1072 C34.0081,132.1072 27.4491,129.9112 27.4491,127.2032 C27.4491,124.4942 34.0081,122.2982 42.1071,122.2982 C50.1981,122.2982 56.7601,124.4942 56.7601,127.2032" id="Fill-23" fill="#FFF200" mask="url(#mask-4)"></path>
                        <polygon id="Fill-24" fill="#FFF200" mask="url(#mask-4)" points="26.132 125.81 28.917 125.81 28.917 121.414 26.132 121.414"></polygon>
                        <polygon id="Fill-25" fill="#FFF200" mask="url(#mask-4)" points="60.568 125.81 63.349 125.81 63.349 121.414 60.568 121.414"></polygon>
                        <path d="M63.349,125.6436 C63.349,129.8356 55.023,133.2346 44.746,133.2346 C34.464,133.2346 26.132,129.8356 26.132,125.6436 C26.132,121.4536 34.464,118.0516 44.746,118.0516 C55.023,118.0516 63.349,121.4536 63.349,125.6436" id="Fill-26" fill="#FEC011" mask="url(#mask-4)"></path>
                        <path d="M63.349,121.5362 C63.349,125.7282 55.023,129.1282 44.746,129.1282 C34.464,129.1282 26.132,125.7282 26.132,121.5362 C26.132,117.3442 34.464,113.9472 44.746,113.9472 C55.023,113.9472 63.349,117.3442 63.349,121.5362" id="Fill-27" fill="#F6871F" mask="url(#mask-4)"></path>
                        <path d="M59.3949,120.4649 C59.3949,123.1709 52.8369,125.3719 44.7469,125.3719 C36.6479,125.3719 30.0879,123.1709 30.0879,120.4649 C30.0879,117.7549 36.6479,115.5589 44.7469,115.5589 C52.8369,115.5589 59.3949,117.7549 59.3949,120.4649" id="Fill-28" fill="#FEC011" mask="url(#mask-4)"></path>
                        <path d="M59.3842,6.1289 C64.6202,0.2409 72.9642,-0.8891 78.0162,3.6049 C83.0662,8.0999 82.9152,16.5159 77.6762,22.4029 C72.4402,28.2899 64.0992,29.4199 59.0462,24.9259 C53.9942,20.4329 54.1472,12.0169 59.3842,6.1289" id="Fill-29" fill="#FEC00F" mask="url(#mask-4)"></path>
                        <path d="M59.6322,6.3496 C64.7092,0.6416 72.3592,-0.8454 76.7112,3.0286 C81.0682,6.9036 80.4812,14.6696 75.4022,20.3786 C70.3242,26.0856 62.6802,27.5746 58.3222,23.6986 C53.9682,19.8236 54.5562,12.0576 59.6322,6.3496" id="Fill-30" fill="#F99B1C" mask="url(#mask-4)"></path>
                        <path d="M60.9984,7.3916 C64.9974,2.8956 71.0194,1.7236 74.4494,4.7756 C77.8794,7.8286 77.4174,13.9446 73.4174,18.4396 C69.4224,22.9326 63.3994,24.1056 59.9684,21.0536 C56.5394,18.0026 57.0014,11.8856 60.9984,7.3916" id="Fill-31" fill="#FEC00F" mask="url(#mask-4)"></path>
                        <path d="M67.3842,9.545 C67.1882,9.768 67.0482,9.988 66.9682,10.205 C66.8872,10.422 66.8492,10.637 66.8562,10.85 C66.8622,11.066 66.9022,11.276 66.9712,11.494 C67.0412,11.708 67.1292,11.926 67.2292,12.149 L70.3782,8.962 C70.1322,8.791 69.8772,8.682 69.6172,8.629 C69.3562,8.575 69.0962,8.575 68.8382,8.627 C68.5832,8.679 68.3312,8.782 68.0882,8.937 C67.8412,9.092 67.6092,9.294 67.3842,9.545 L67.3842,9.545 Z M66.2622,16.524 C66.4532,16.309 66.5912,16.096 66.6742,15.887 C66.7582,15.679 66.8032,15.467 66.8052,15.255 C66.8122,15.04 66.7862,14.829 66.7342,14.618 C66.6732,14.41 66.5962,14.194 66.5012,13.983 L63.6552,16.87 C63.9002,17.04 64.1452,17.153 64.3862,17.208 C64.6252,17.262 64.8592,17.27 65.0852,17.231 C65.3042,17.187 65.5192,17.105 65.7162,16.982 C65.9202,16.86 66.0972,16.708 66.2622,16.524 L66.2622,16.524 Z M71.9002,8.523 C72.2652,8.94 72.5252,9.408 72.6692,9.927 C72.8152,10.444 72.8612,10.982 72.8102,11.536 L72.0512,11.845 C71.9812,11.873 71.9092,11.879 71.8402,11.873 C71.7672,11.867 71.7062,11.84 71.6622,11.797 C71.5962,11.739 71.5602,11.632 71.5522,11.476 C71.5472,11.316 71.5302,11.132 71.5102,10.913 C71.4882,10.698 71.4412,10.466 71.3662,10.214 C71.2932,9.967 71.1552,9.72 70.9562,9.478 L67.5972,12.87 C67.7512,13.175 67.8952,13.49 68.0172,13.815 C68.1432,14.139 68.2112,14.477 68.2262,14.829 C68.2382,15.184 68.1722,15.551 68.0252,15.941 C67.8772,16.327 67.6132,16.74 67.2242,17.176 C66.9332,17.502 66.6002,17.777 66.2262,18.004 C65.8512,18.226 65.4632,18.378 65.0642,18.454 C64.6622,18.534 64.2562,18.528 63.8452,18.438 C63.4352,18.352 63.0512,18.15 62.6962,17.835 L61.7752,18.767 C61.6932,18.845 61.5992,18.898 61.4962,18.926 C61.3932,18.952 61.3032,18.935 61.2292,18.867 L60.8902,18.567 L62.1432,17.302 C61.8352,16.923 61.6342,16.532 61.5392,16.116 C61.4432,15.701 61.4062,15.274 61.4312,14.833 L62.0472,14.586 C62.2372,14.513 62.3742,14.519 62.4612,14.597 C62.5102,14.637 62.5412,14.718 62.5652,14.837 C62.5822,14.954 62.6102,15.093 62.6452,15.259 C62.6782,15.419 62.7272,15.593 62.7912,15.781 C62.8562,15.969 62.9552,16.156 63.0942,16.334 L66.1522,13.241 C65.9942,12.925 65.8492,12.599 65.7112,12.272 C65.5762,11.942 65.4962,11.601 65.4702,11.246 C65.4432,10.893 65.4882,10.524 65.6212,10.146 C65.7472,9.763 65.9942,9.366 66.3622,8.953 C66.7212,8.55 67.1092,8.217 67.5292,7.953 C67.9462,7.689 68.3732,7.51 68.8072,7.414 C69.2422,7.32 69.6782,7.317 70.1102,7.399 C70.5482,7.486 70.9472,7.691 71.3142,8.017 L72.4402,6.868 C72.5252,6.791 72.6172,6.736 72.7212,6.717 C72.8232,6.692 72.9112,6.71 72.9842,6.774 L73.3212,7.074 L71.9002,8.523 Z" id="Fill-32" fill="#F99B1C" mask="url(#mask-4)"></path>
                        <path d="M23.2845,45.3965 C29.6585,50.5085 30.8925,59.5555 26.0415,65.6005 C21.1895,71.6455 12.0895,72.3985 5.7185,67.2845 C-0.6535,62.1685 -1.8875,53.1235 2.9635,47.0785 C7.8145,41.0345 16.9115,40.2815 23.2845,45.3965" id="Fill-33" fill="#FEC00F" mask="url(#mask-4)"></path>
                        <path d="M23.0394,45.7002 C29.2164,50.6602 30.7314,59.0352 26.4204,64.4082 C22.1064,69.7812 13.6014,70.1162 7.4244,65.1572 C1.2464,60.2002 -0.2666,51.8262 4.0464,46.4532 C8.3564,41.0792 16.8604,40.7442 23.0394,45.7002" id="Fill-34" fill="#F99B1C" mask="url(#mask-4)"></path>
                        <path d="M21.3793,47.7676 C26.2443,51.6706 27.4373,58.2686 24.0413,62.4986 C20.6463,66.7316 13.9463,66.9966 9.0833,63.0916 C4.2163,59.1866 3.0253,52.5906 6.4213,48.3596 C9.8173,44.1286 16.5133,43.8646 21.3793,47.7676" id="Fill-35" fill="#FEC00F" mask="url(#mask-4)"></path>
                        <path d="M18.9242,55.1963 C18.6802,55.0013 18.4432,54.8763 18.2052,54.8143 C17.9682,54.7493 17.7312,54.7373 17.4992,54.7693 C17.2642,54.8033 17.0302,54.8753 16.7902,54.9823 C16.5562,55.0893 16.3162,55.2123 16.0702,55.3563 L19.5132,58.4733 C19.7072,58.1773 19.8292,57.8783 19.8932,57.5793 C19.9562,57.2783 19.9592,56.9883 19.9052,56.7073 C19.8532,56.4273 19.7442,56.1573 19.5782,55.9053 C19.4102,55.6493 19.1942,55.4153 18.9242,55.1963 L18.9242,55.1963 Z M11.2912,54.8313 C11.5252,55.0183 11.7552,55.1443 11.9812,55.2123 C12.2102,55.2783 12.4432,55.3003 12.6752,55.2763 C12.9082,55.2573 13.1392,55.2013 13.3712,55.1113 C13.6002,55.0183 13.8382,54.9053 14.0722,54.7733 L10.9502,51.9533 C10.7612,52.2513 10.6322,52.5383 10.5702,52.8163 C10.5072,53.0923 10.4942,53.3543 10.5362,53.6003 C10.5782,53.8423 10.6662,54.0723 10.7992,54.2793 C10.9272,54.4893 11.0922,54.6703 11.2912,54.8313 L11.2912,54.8313 Z M19.9732,60.1213 C19.5122,60.5853 18.9942,60.9343 18.4242,61.1643 C17.8532,61.3943 17.2652,61.5123 16.6582,61.5263 L16.3302,60.7163 C16.3022,60.6433 16.2932,60.5633 16.3022,60.4843 C16.3122,60.4013 16.3432,60.3313 16.3892,60.2733 C16.4532,60.1923 16.5712,60.1403 16.7422,60.1123 C16.9152,60.0853 17.1222,60.0443 17.3592,59.9933 C17.5962,59.9403 17.8512,59.8573 18.1292,59.7413 C18.4022,59.6283 18.6732,59.4403 18.9432,59.1863 L15.2762,55.8593 C14.9382,56.0713 14.5902,56.2713 14.2342,56.4493 C13.8772,56.6323 13.5042,56.7533 13.1182,56.8133 C12.7302,56.8703 12.3262,56.8433 11.9022,56.7303 C11.4842,56.6143 11.0342,56.3703 10.5632,55.9913 C10.2072,55.7073 9.9102,55.3693 9.6692,54.9773 C9.4312,54.5893 9.2702,54.1723 9.1932,53.7333 C9.1132,53.2953 9.1252,52.8373 9.2312,52.3673 C9.3312,51.8993 9.5572,51.4403 9.9092,51.0043 L8.9022,50.0923 C8.8182,50.0083 8.7622,49.9103 8.7312,49.7993 C8.7032,49.6853 8.7252,49.5823 8.7982,49.4913 L9.1342,49.0733 L10.4992,50.3133 C10.9192,49.9243 11.3532,49.6473 11.8102,49.4863 C12.2642,49.3273 12.7342,49.2313 13.2162,49.2033 L13.4772,49.8623 C13.5552,50.0623 13.5482,50.2183 13.4632,50.3273 C13.4152,50.3843 13.3262,50.4323 13.1952,50.4713 C13.0682,50.5093 12.9132,50.5553 12.7342,50.6163 C12.5572,50.6733 12.3652,50.7513 12.1582,50.8463 C11.9502,50.9413 11.7422,51.0793 11.5472,51.2583 L14.8912,54.2863 C15.2392,54.0703 15.5992,53.8643 15.9592,53.6713 C16.3222,53.4763 16.6982,53.3423 17.0852,53.2673 C17.4752,53.1903 17.8792,53.1983 18.2912,53.2973 C18.7072,53.3873 19.1392,53.6163 19.5852,53.9753 C20.0232,54.3253 20.3822,54.7163 20.6632,55.1523 C20.9462,55.5863 21.1372,56.0433 21.2372,56.5153 C21.3312,56.9923 21.3282,57.4793 21.2312,57.9743 C21.1302,58.4733 20.9022,58.9483 20.5372,59.4003 L21.7782,60.5153 C21.8622,60.5983 21.9192,60.6993 21.9442,60.8113 C21.9642,60.9253 21.9452,61.0253 21.8732,61.1113 L21.5382,61.5293 L19.9732,60.1213 Z" id="Fill-36" fill="#F99B1C" mask="url(#mask-4)"></path>
                        <path d="M138.1136,49.002 C138.1136,58.457 130.4466,66.126 120.9906,66.126 C111.5326,66.126 103.8686,58.457 103.8686,49.002 C103.8686,39.548 111.5326,31.883 120.9906,31.883 C130.4466,31.883 138.1136,39.548 138.1136,49.002" id="Fill-37" fill="#FEC00F" mask="url(#mask-4)"></path>
                        <path d="M137.5922,49.002 C137.5922,58.169 130.1582,65.603 120.9902,65.603 C111.8222,65.603 104.3912,58.169 104.3912,49.002 C104.3912,39.835 111.8222,32.404 120.9902,32.404 C130.1582,32.404 137.5922,39.835 137.5922,49.002" id="Fill-38" fill="#F99B1C" mask="url(#mask-4)"></path>
                        <path d="M134.0629,49.002 C134.0629,56.222 128.2119,62.073 120.9909,62.073 C113.7699,62.073 107.9169,56.222 107.9169,49.002 C107.9169,41.785 113.7699,35.932 120.9909,35.932 C128.2119,35.932 134.0629,41.785 134.0629,49.002" id="Fill-39" fill="#FEC00F" mask="url(#mask-4)"></path>
                        <path d="M124.308,52.166 C124.308,51.812 124.243,51.499 124.107,51.241 C123.972,50.981 123.794,50.758 123.565,50.573 C123.334,50.386 123.068,50.225 122.754,50.088 C122.447,49.951 122.119,49.824 121.765,49.708 L121.4,55.073 C121.867,55.031 122.28,54.928 122.643,54.765 C123.006,54.607 123.311,54.397 123.557,54.147 C123.805,53.898 123.993,53.603 124.118,53.27 C124.246,52.935 124.308,52.569 124.308,52.166 L124.308,52.166 Z M118.33,45.013 C118.33,45.359 118.391,45.661 118.512,45.912 C118.634,46.166 118.8,46.392 119.019,46.585 C119.237,46.781 119.486,46.948 119.772,47.095 C120.06,47.235 120.375,47.365 120.707,47.483 L121.035,42.622 C120.568,42.666 120.163,42.759 119.82,42.902 C119.484,43.048 119.201,43.226 118.979,43.44 C118.762,43.653 118.597,43.901 118.492,44.168 C118.383,44.437 118.33,44.718 118.33,45.013 L118.33,45.013 Z M120.072,56.68 C119.207,56.6 118.412,56.388 117.699,56.036 C116.984,55.69 116.371,55.244 115.851,54.706 L116.42,53.825 C116.472,53.745 116.548,53.681 116.639,53.633 C116.732,53.579 116.829,53.557 116.929,53.557 C117.066,53.557 117.218,53.624 117.391,53.759 C117.565,53.898 117.776,54.051 118.029,54.228 C118.28,54.402 118.579,54.575 118.93,54.743 C119.275,54.903 119.694,55.015 120.18,55.073 L120.579,49.353 C120.082,49.201 119.583,49.034 119.101,48.841 C118.614,48.651 118.18,48.403 117.793,48.099 C117.412,47.79 117.103,47.408 116.869,46.94 C116.639,46.48 116.52,45.897 116.52,45.195 C116.52,44.671 116.623,44.159 116.827,43.657 C117.031,43.16 117.33,42.712 117.721,42.324 C118.11,41.936 118.594,41.614 119.17,41.369 C119.742,41.122 120.407,40.993 121.152,40.993 L121.258,39.423 C121.273,39.287 121.327,39.165 121.42,39.059 C121.513,38.951 121.639,38.897 121.796,38.897 L122.507,38.897 L122.36,41.028 C123.112,41.123 123.761,41.313 124.308,41.61 C124.854,41.906 125.342,42.262 125.772,42.676 L125.309,43.386 C125.165,43.604 124.999,43.71 124.813,43.71 C124.711,43.71 124.591,43.664 124.443,43.574 C124.296,43.486 124.118,43.38 123.906,43.262 C123.699,43.145 123.458,43.027 123.189,42.909 C122.914,42.79 122.601,42.705 122.251,42.655 L121.894,47.868 C122.411,48.027 122.917,48.201 123.424,48.387 C123.926,48.573 124.379,48.814 124.78,49.112 C125.181,49.406 125.51,49.774 125.751,50.222 C126.006,50.664 126.127,51.217 126.127,51.878 C126.127,52.526 126.021,53.135 125.805,53.706 C125.588,54.276 125.273,54.777 124.865,55.208 C124.451,55.64 123.943,55.992 123.345,56.262 C122.745,56.532 122.061,56.668 121.289,56.668 L121.163,58.595 C121.152,58.73 121.094,58.854 120.995,58.958 C120.897,59.061 120.775,59.113 120.625,59.113 L119.912,59.113 L120.072,56.68 Z" id="Fill-40" fill="#F99B1C" mask="url(#mask-4)"></path>
                        <polygon id="Fill-41" fill="#0085FF" mask="url(#mask-4)" points="119.7162 100.8301 95.1342 92.8421 70.5532 84.8521 78.5412 109.4361 86.5282 134.0191 95.1652 117.2041 108.2932 130.3321 116.0282 122.5921 102.9022 109.4701"></polygon>
                        <polygon id="Fill-42" fill="#50ABFF" mask="url(#mask-4)" points="95.1342 92.8418 70.5532 84.8528 70.8212 85.6728 111.8842 126.7378 116.0282 122.5918 102.9022 109.4698 119.7162 100.8298"></polygon>
                    </g>
                </g>
            </g>
        </g>
    </g>
</svg>