<?xml version="1.0" encoding="UTF-8"?>
<svg width="229px" height="218px" viewBox="0 0 229 218" version="1.1" xmlns="http://www.w3.org/2000/svg" xmlns:xlink="http://www.w3.org/1999/xlink">
    <!-- Generator: Sketch 59.1 (86144) - https://sketch.com -->
    <title>how_to_3_i</title>
    <desc>Created with Sketch.</desc>
    <defs>
        <polygon id="path-1" points="0.731653892 0.0750371069 71.2836673 0.0750371069 71.2836673 63.3710692 0.731653892 63.3710692"></polygon>
        <polygon id="path-3" points="0 0.269038994 59.3640013 0.269038994 59.3640013 59.6290075 0 59.6290075"></polygon>
    </defs>
    <g id="current" stroke="none" stroke-width="1" fill="none" fill-rule="evenodd">
        <g id="01-iq_main-calculator-bronze" transform="translate(-1007.000000, -2817.000000)">
            <g id="block-3" transform="translate(0.000000, 2467.000000)">
                <g id="Group" transform="translate(140.000000, 140.000000)">
                    <g id="Group-2" transform="translate(0.000000, 210.000000)">
                        <g id="how_to_3_i" transform="translate(867.000000, -0.000000)">
                            <polygon id="Fill-1" fill="#82C3FF" points="86.1976164 67.3922516 93.185717 67.3922516 93.185717 40.2219057 86.1976164 40.2219057"></polygon>
                            <polygon id="Fill-2" fill="#82C3FF" points="100.173818 67.3922516 107.161918 67.3922516 107.161918 34.9361824 100.173818 34.9361824"></polygon>
                            <polygon id="Fill-3" fill="#82C3FF" points="114.148579 67.3936918 121.135239 67.3936918 121.135239 30.8876352 114.148579 30.8876352"></polygon>
                            <polygon id="Fill-4" fill="#82C3FF" points="128.12622 67.3922516 135.114321 67.3922516 135.114321 34.5473145 128.12622 34.5473145"></polygon>
                            <polygon id="Fill-5" fill="#82C3FF" points="142.103862 67.3922516 149.091962 67.3922516 149.091962 21.4309434 142.103862 21.4309434"></polygon>
                            <polygon id="Fill-6" fill="#82C3FF" points="156.080063 67.3922516 163.068164 67.3922516 163.068164 25.8352327 156.080063 25.8352327"></polygon>
                            <polygon id="Fill-7" fill="#82C3FF" points="170.054824 67.3922516 177.044365 67.3922516 177.044365 16.734283 170.054824 16.734283"></polygon>
                            <polygon id="Fill-8" fill="#82C3FF" points="184.031025 67.3922516 191.019126 67.3922516 191.019126 8.5147673 184.031025 8.5147673"></polygon>
                            <polygon id="Fill-9" fill="#82C3FF" points="198.008667 67.3922516 204.995327 67.3922516 204.995327 0 198.008667 0"></polygon>
                            <polygon id="Fill-10" fill="#FFFFFF" points="164.93833 55.1913044 164.93833 72.4599208 164.93833 95.2317384 164.93833 141.751864 228.274833 141.751864 228.274833 71.9054239 211.562154 55.1913044"></polygon>
                            <polygon id="Fill-11" fill="#82C3FF" points="211.562298 71.906144 228.274977 71.906144 211.562298 55.1920245"></polygon>
                            <polygon id="Fill-12" fill="#D1ECFB" points="211.562298 71.906144 228.274977 88.6202635 228.274977 71.906144"></polygon>
                            <polygon id="Fill-13" fill="#1879D3" points="176.929145 76.5968994 196.31205 76.5968994 196.31205 75.0126226 176.929145 75.0126226"></polygon>
                            <polygon id="Fill-14" fill="#A6DAE9" points="176.929145 84.3814591 216.281138 84.3814591 216.281138 82.7971824 176.929145 82.7971824"></polygon>
                            <polygon id="Fill-15" fill="#A6DAE9" points="176.929145 89.3474465 216.281138 89.3474465 216.281138 87.7674906 176.929145 87.7674906"></polygon>
                            <polygon id="Fill-16" fill="#A6DAE9" points="176.929145 94.3177547 216.281138 94.3177547 216.281138 92.7377987 176.929145 92.7377987"></polygon>
                            <polygon id="Fill-17" fill="#A6DAE9" points="176.929145 99.2923836 216.281138 99.2923836 216.281138 97.7066667 176.929145 97.7066667"></polygon>
                            <polygon id="Fill-18" fill="#A6DAE9" points="176.929145 104.261252 216.281138 104.261252 216.281138 102.678415 176.929145 102.678415"></polygon>
                            <polygon id="Fill-19" fill="#A6DAE9" points="176.929145 109.228679 216.281138 109.228679 216.281138 107.648723 176.929145 107.648723"></polygon>
                            <polygon id="Fill-20" fill="#A6DAE9" points="176.929145 114.200428 216.281138 114.200428 216.281138 112.617591 176.929145 112.617591"></polygon>
                            <g id="Group-117" transform="translate(0.000000, 46.589258)">
                                <path d="M206.642399,81.6426767 C206.36587,81.8947208 206.180078,82.1294818 206.141191,82.3152742 C206.13399,82.354161 206.116707,82.4448969 206.439323,82.537073 C206.6496,82.5975635 206.753298,82.5759597 206.767701,82.5557962 C206.836833,82.4636201 206.831072,82.1352428 206.642399,81.6426767 M200.789216,81.1731547 C200.573179,81.8486327 200.554455,82.5802805 200.75177,83.2744818 C200.757531,83.293205 200.763292,83.3119283 200.767613,83.3292113 C200.862669,82.8654503 200.907317,82.0603497 200.789216,81.1731547 M200.783455,84.4281233 C200.748889,84.4281233 200.721525,84.4252428 200.698481,84.420922 C200.306732,84.3546704 200.12382,83.8865887 200.01004,83.4847585 C199.66726,82.2864692 199.860254,80.9873623 200.518449,79.9402994 C200.404669,79.583117 200.259204,79.2316956 200.073411,78.901878 C199.969713,78.7160855 200.035965,78.4813245 200.221757,78.3761862 C200.403229,78.2724881 200.642311,78.3372994 200.746009,78.5245321 C200.874191,78.7492113 200.985091,78.9854126 201.083028,79.2288151 C201.787311,78.5187711 202.716273,78.1212616 203.702845,78.1212616 C204.973147,78.1212616 206.154153,79.2677019 206.838273,80.3421296 C206.862757,80.3824566 206.888682,80.4227836 206.914606,80.4659912 C208.098493,79.6738528 209.677009,79.0689472 210.54404,79.1697648 C211.677518,79.3065887 211.80426,80.3882176 211.815782,81.0910604 C212.122556,80.6733874 212.226254,80.3723748 212.304028,80.1491358 C212.594958,79.3065887 212.885889,79.3627585 214.794223,79.7271421 L215.17733,79.800595 C215.386166,79.840922 215.52443,80.0439975 215.485543,80.2513937 C215.442336,80.4616704 215.23782,80.5941736 215.033304,80.5596075 L214.650197,80.4847145 C213.80765,80.3248465 213.192663,80.2081862 213.0616,80.247073 L213.064481,80.247073 C213.087525,80.247073 213.057279,80.3320478 213.032795,80.4011799 C212.936298,80.6805887 212.790833,81.1011421 212.337153,81.678683 C212.027499,82.0761925 211.752411,82.3973686 211.388028,82.2706264 C211.039487,82.148205 211.040927,81.7751799 211.043808,81.3431044 C211.049569,80.4587899 210.958833,79.9964692 210.451864,79.9345384 C209.695732,79.8510038 208.272764,80.4703119 207.274669,81.1529912 C207.582883,81.8543937 207.715386,82.5774 207.387009,83.0166767 C207.248745,83.2010289 206.920367,83.4746767 206.226166,83.2802428 C205.291443,83.0109157 205.346172,82.3556013 205.385059,82.1611673 C205.465713,81.7708591 205.809933,81.3402239 206.293858,80.9311925 C206.259292,80.8735824 206.224726,80.8159723 206.187279,80.756922 C205.639984,79.8956516 204.660613,78.8917962 203.702845,78.8917962 C202.779644,78.8917962 201.950059,79.3137899 201.360996,80.0800038 C201.813235,81.8097459 201.649047,83.6071799 201.26594,84.151595 C201.101751,84.3834755 200.908757,84.4281233 200.783455,84.4281233" id="Fill-21" fill="#1879D3"></path>
                                <path d="M180.504137,77.1601818 C179.14598,77.1601818 178.039867,78.2648547 178.039867,79.6230119 C178.039867,80.9811692 179.14598,82.0872824 180.504137,82.0872824 C181.862294,82.0872824 182.966967,80.9811692 182.966967,79.6230119 C182.966967,78.2648547 181.862294,77.1601818 180.504137,77.1601818 M180.504137,83.5476975 C178.340879,83.5476975 176.579452,81.7862698 176.579452,79.6230119 C176.579452,77.4597541 178.340879,75.6997667 180.504137,75.6997667 C182.667395,75.6997667 184.427382,77.4597541 184.427382,79.6230119 C184.427382,81.7862698 182.667395,83.5476975 180.504137,83.5476975" id="Fill-23" fill="#596273"></path>
                                <path d="M178.442129,81.1221698 L179.013909,81.329566 C179.143531,81.3756541 179.258752,81.4577484 179.343726,81.5686478 L179.716752,82.0482516 L180.300053,81.8783019 C180.435437,81.8394151 180.572261,81.8394151 180.707645,81.8783019 L181.292387,82.0482516 L181.663972,81.5672075 C181.748947,81.4563082 181.864167,81.3742138 181.99523,81.3281258 L182.565569,81.1221698 L182.584292,80.5129434 C182.590053,80.3746792 182.631821,80.2421761 182.709594,80.1283962 L183.050934,79.6228679 L182.711035,79.1187799 C182.631821,79.005 182.590053,78.8724969 182.584292,78.7342327 L182.565569,78.1250063 L181.992349,77.9161698 C181.862726,77.8686415 181.748947,77.7879874 181.663972,77.6770881 L181.292387,77.1989245 L180.707645,77.3688742 C180.572261,77.407761 180.432557,77.407761 180.300053,77.3688742 L179.716752,77.1989245 L179.343726,77.6785283 C179.257311,77.7894277 179.144972,77.871522 179.015349,77.9176101 L178.442129,78.1250063 L178.421965,78.7327925 C178.416204,78.8710566 178.372997,79.0035597 178.295223,79.1173396 L177.953884,79.6228679 L178.295223,80.1283962 C178.372997,80.2421761 178.416204,80.3746792 178.421965,80.5129434 L178.442129,81.1221698 Z M179.443104,83.6166855 C179.221305,83.6166855 179.008148,83.5158679 178.867003,83.3343962 L178.319708,82.6301132 L177.481481,82.3276604 C177.200632,82.2268428 177.009079,81.964717 176.998997,81.6651447 L176.970192,80.7721887 L176.468984,80.0318994 C176.300475,79.7841761 176.300475,79.4615597 176.468984,79.2138365 L176.970192,78.4735472 L176.998997,77.5834717 C177.009079,77.2853396 177.200632,77.0217736 177.480041,76.920956 L178.319708,76.6170629 L178.868443,75.9127799 C179.052796,75.6765786 179.361009,75.575761 179.64906,75.6592956 L180.504569,75.9084591 L181.360079,75.6592956 C181.65245,75.5743208 181.957783,75.6765786 182.140695,75.9127799 L182.687991,76.6156226 L183.527657,76.920956 C183.809947,77.0232138 183.998619,77.2853396 184.008701,77.5834717 L184.037506,78.4749874 L184.535833,79.2138365 C184.705783,79.4615597 184.705783,79.7841761 184.537274,80.0318994 L184.037506,80.7721887 L184.008701,81.6651447 C183.998619,81.9632767 183.808506,82.2268428 183.524777,82.3276604 L182.687991,82.628673 L182.140695,83.3343962 C181.957783,83.5705975 181.65245,83.6728553 181.360079,83.5878805 L180.504569,83.338717 L179.647619,83.5878805 C179.579928,83.608044 179.510796,83.6166855 179.443104,83.6166855 L179.443104,83.6166855 Z" id="Fill-25" fill="#596273"></path>
                                <path d="M182.937298,85.5090321 C182.71694,85.5090321 182.496581,85.4082145 182.353996,85.2181013 L181.136984,83.5978182 C180.895021,83.2737616 180.959833,82.8172019 181.282449,82.5752396 C181.603625,82.3332774 182.060185,82.3966484 182.305028,82.7192648 L183.5206,84.3395478 C183.762562,84.6636044 183.697751,85.1201642 183.376575,85.3621264 C183.244072,85.4615038 183.089965,85.5090321 182.937298,85.5090321" id="Fill-27" fill="#596273"></path>
                                <path d="M178.072272,85.5090321 C177.919606,85.5090321 177.765499,85.4615038 177.634436,85.3621264 C177.311819,85.1201642 177.247008,84.6636044 177.48897,84.3409881 L178.703103,82.720705 C178.945065,82.3966484 179.407386,82.3347176 179.724241,82.5752396 C180.048297,82.8172019 180.113109,83.2737616 179.871147,83.596378 L178.655574,85.216661 C178.512989,85.4082145 178.292631,85.5090321 178.072272,85.5090321" id="Fill-29" fill="#596273"></path>
                                <path d="M128.801266,9.40930755 C128.128669,10.7559428 126.836763,11.4717478 125.889077,11.0468736 C111.02136,4.36410629 93.9975868,4.36410629 79.1327503,11.0468736 C78.1850648,11.4717478 76.8888384,10.7559428 76.2220019,9.40930755 C76.1730333,9.30848994 76.1240648,9.20479182 76.073656,9.10541447 C75.4010585,7.75877925 75.7035113,6.25083585 76.7620962,5.77267233 C93.1377566,-1.58557296 111.882631,-1.58557296 128.259731,5.77267233 C129.316876,6.24795535 129.616448,7.75877925 128.949612,9.10541447 C128.897763,9.20479182 128.850235,9.30848994 128.801266,9.40930755" id="Fill-31" fill="#0E303F"></path>
                                <path d="M128.259731,5.77209623 C111.886952,-1.58470881 93.1377566,-1.58470881 76.7620962,5.77209623 C75.7035113,6.24737925 75.4010585,7.75820314 76.073656,9.10483836 C92.7503289,0.935731447 112.270058,0.935731447 128.949612,9.10483836 C129.616448,7.75820314 129.315436,6.25025975 128.259731,5.77209623" id="Fill-33" fill="#474F59"></path>
                                <path d="M81.6203528,24.9340673 C81.6203528,25.9307214 80.8138119,26.7372623 79.8200384,26.7372623 L79.5233465,26.7372623 C78.5281327,26.7372623 77.7230321,25.9307214 77.7230321,24.9340673 L77.7230321,9.63427484 C77.7230321,8.63906101 78.5281327,7.83107987 79.5233465,7.83107987 L79.8200384,7.83107987 C80.8138119,7.83107987 81.6203528,8.63906101 81.6203528,9.63427484 L81.6203528,24.9340673 Z" id="Fill-35" fill="#A6DAE9"></path>
                                <path d="M84.0226925,18.1828881 C84.0226925,20.5852277 82.0754723,22.5338881 79.6673717,22.5338881 C77.2693528,22.5338881 75.3149314,20.5852277 75.3149314,18.1828881 C75.3149314,15.7805484 77.2693528,13.8333283 79.6673717,13.8333283 C82.0754723,13.8333283 84.0226925,15.7805484 84.0226925,18.1828881" id="Fill-37" fill="#A6DAE9"></path>
                                <path d="M127.303404,24.9340673 C127.303404,25.9307214 126.493983,26.7372623 125.50309,26.7372623 L125.202077,26.7372623 C124.208304,26.7372623 123.404643,25.9307214 123.404643,24.9340673 L123.404643,9.63427484 C123.404643,8.63906101 124.208304,7.83107987 125.202077,7.83107987 L125.50309,7.83107987 C126.493983,7.83107987 127.303404,8.63906101 127.303404,9.63427484 L127.303404,24.9340673 Z" id="Fill-39" fill="#A6DAE9"></path>
                                <path d="M129.70704,18.1828881 C129.70704,20.5852277 127.75694,22.5338881 125.35316,22.5338881 C122.94794,22.5338881 121.00216,20.5852277 121.00216,18.1828881 C121.00216,15.7805484 122.94794,13.8333283 125.35316,13.8333283 C127.75694,13.8333283 129.70704,15.7805484 129.70704,18.1828881" id="Fill-41" fill="#A6DAE9"></path>
                                <path d="M184.720762,123.051206 C184.720762,126.033967 182.299699,128.452149 179.318378,128.452149 L25.7025855,128.452149 C22.7198245,128.452149 20.3016421,126.033967 20.3016421,123.051206 L20.3016421,23.4390862 C20.3016421,20.4548849 22.7198245,18.0367025 25.7025855,18.0367025 L179.318378,18.0367025 C182.299699,18.0367025 184.720762,20.4548849 184.720762,23.4390862 L184.720762,123.051206 Z" id="Fill-43" fill="#0E303F"></path>
                                <path d="M184.720762,60.0430799 C184.720762,63.0114384 182.344347,66.0446082 179.396152,66.764734 C128.853403,78.8542057 76.1690006,78.8542057 25.6248119,66.764734 C22.6794975,66.0446082 20.2973214,63.0114384 20.3016363,60.0430799 L20.3016363,23.4390862 C20.2973214,20.4736082 22.7097428,18.0554258 25.7025855,18.0367025 L179.318378,18.0367025 C182.304019,18.0554258 184.720762,20.4736082 184.720762,23.4390862 L184.720762,60.0430799 Z" id="Fill-45" fill="#474F59"></path>
                                <path d="M102.511058,72.2289044 C76.9235484,72.2289044 51.3403597,69.2101371 26.4585736,63.2633384 C25.1551459,62.9450428 23.8992465,61.3794893 23.8992465,60.0472566 L23.8992465,23.4389421 C23.8992465,22.4494893 24.7173094,21.6429484 25.7154038,21.6400679 L179.318234,21.6400679 C180.306247,21.6429484 181.122869,22.4523698 181.122869,23.4418226 L181.122869,60.0429358 C181.122869,61.3794893 179.86697,62.946483 178.543379,63.2662189 C153.680316,69.2101371 128.094247,72.2289044 102.511058,72.2289044" id="Fill-47" fill="#0E303F"></path>
                                <path d="M102.511058,66.8308415 C78.2096931,66.8308415 53.895366,64.1375711 29.7337057,58.8216025 C28.4605233,58.5335522 27.1714981,57.1365082 27.0894038,55.9468604 C26.351995,45.0470365 25.6189069,34.1472126 24.8872591,23.2445082 C24.8238881,22.3645145 25.5814604,21.6429484 26.5781145,21.6400679 L178.467045,21.6400679 C179.439215,21.6429484 180.195347,22.3645145 180.134857,23.2445082 C179.398888,34.1472126 178.6658,45.0470365 177.928391,55.9468604 C177.853498,57.1350679 176.555831,58.5364327 175.269687,58.824483 C151.13107,64.1375711 126.812423,66.8308415 102.511058,66.8308415" id="Fill-49" fill="#474F59"></path>
                                <path d="M92.0087434,17.7342497 L92.0087434,65.6269352 C92.0087434,68.0119918 92.8152843,69.9505704 93.8061774,69.9505704 L111.214498,69.9505704 C112.203951,69.9505704 113.013372,68.0119918 113.013372,65.6269352 L113.013372,17.7342497 L92.0087434,17.7342497 Z" id="Fill-51" fill="#0E303F"></path>
                                <path d="M94.5615893,17.7342497 L94.5615893,65.6269352 C94.5615893,68.0119918 94.6523252,69.9505704 94.7617843,69.9505704 L96.7522119,69.9505704 C96.8674321,69.9505704 96.9610484,68.0119918 96.9610484,65.6269352 L96.9610484,17.7342497 L94.5615893,17.7342497 Z" id="Fill-53" fill="#474F59"></path>
                                <path d="M108.065388,17.7342497 L108.065388,65.6269352 C108.065388,68.0119918 108.154684,69.9505704 108.267023,69.9505704 L110.257451,69.9505704 C110.369791,69.9505704 110.463407,68.0119918 110.463407,65.6269352 L110.463407,17.7342497 L108.065388,17.7342497 Z" id="Fill-55" fill="#474F59"></path>
                                <path d="M111.812203,87.0492371 C111.809322,87.9205893 111.120882,88.9042811 110.263932,89.1779289 C105.208649,90.7348409 99.8120264,90.7348409 94.7581836,89.1779289 C93.8925925,88.9042811 93.2041522,87.9205893 93.2070237,87.0492371 L93.2070237,68.4483881 C93.2070237,67.5770358 93.8983535,66.5976648 94.7581836,66.3211365 C99.8120264,64.767105 105.208649,64.767105 110.263932,66.3211365 C111.123762,66.5976648 111.809322,67.5770358 111.812203,68.4483881 L111.812203,87.0492371 Z" id="Fill-57" fill="#FEC00F"></path>
                                <path d="M110.263644,66.9545591 C105.208361,65.4869428 99.8117384,65.4869428 94.7578956,66.9545591 C93.8980654,67.2094836 93.2067447,68.1355654 93.2067447,68.9536283 L93.2067447,77.0564836 C93.2643547,77.0636849 93.3205245,77.0838484 93.3795748,77.0838484 L111.811914,77.0838484 L111.811914,68.9536283 C111.809034,68.1355654 111.124914,67.2094836 110.263644,66.9545591" id="Fill-59" fill="#F99B1C"></path>
                                <path d="M93.2071677,78.8071094 L93.2071677,87.0496692 C93.2042962,87.9210214 93.8927365,88.9047132 94.7583277,89.1769208 C99.8121704,90.7338327 105.208793,90.7338327 110.264076,89.1769208 C111.121026,88.9047132 111.809466,87.9210214 111.812347,87.0496692 L111.812347,78.8071094 L93.2071677,78.8071094 Z" id="Fill-61" fill="#F99B1C"></path>
                                <path d="M102.511058,88.7495981 C100.043907,88.7495981 97.594039,88.3794535 95.2291459,87.6535667 C95.0433535,87.5930761 94.8028314,87.2330132 94.8028314,87.054422 L94.8028314,80.4033403 L110.216404,80.4033403 L110.216404,87.048661 C110.216404,87.2445352 109.957158,87.5988371 109.772806,87.6593277 C107.428077,88.3794535 104.98397,88.7495981 102.511058,88.7495981" id="Fill-63" fill="#FEC00F"></path>
                                <path d="M164.326511,107.374499 C161.653404,108.669286 159.343241,110.456638 157.493958,112.686147 L134.933857,100.755103 C140.337681,92.4434113 148.393008,85.8960277 158.120467,82.5272792 L164.326511,107.374499 Z" id="Fill-65" fill="#B7DDFF"></path>
                                <path d="M192.440942,118.888014 C189.501389,110.546077 181.385571,105.019832 172.38976,105.369813 L166.202439,80.5542786 C166.489049,80.5139516 166.765577,80.4318572 167.056508,80.3929704 C190.670873,77.2028132 212.496445,92.6927189 217.695753,115.476058 L192.440942,118.888014 Z" id="Fill-67" fill="#82C3FF"></path>
                                <path d="M188.770029,138.780049 C191.492104,135.542364 193.247771,131.511099 193.551664,127.114011 L218.806475,123.702055 C219.409941,137.300911 213.915381,149.966483 204.549425,158.832672 L188.770029,138.780049 Z" id="Fill-69" fill="#61B3FF"></path>
                                <g id="Group-73" transform="translate(126.742138, 108.018868)">
                                    <mask id="mask-2" fill="white">
                                        <use xlink:href="#path-1"></use>
                                    </mask>
                                    <g id="Clip-72"></g>
                                    <path d="M26.8346233,11.9873579 C26.0540069,14.6417415 25.7976421,17.4847981 26.1922711,20.3998673 C27.7045352,31.5776597 37.9821704,39.4212698 49.1686044,37.9104459 C51.4485226,37.6022321 53.5311264,36.8432195 55.4913088,35.8796912 L71.2836673,55.9639994 C65.8020698,59.5387038 59.4750447,62.018817 52.5531956,62.9549805 C27.5403465,66.3323704 4.52224591,48.7915465 1.14197547,23.7830182 C0.0142584906,15.4324396 1.2571956,7.33390503 4.30332767,0.0750371069 L26.8346233,11.9873579 Z" id="Fill-71" fill="#FFFFFF" mask="url(#mask-2)"></path>
                                </g>
                                <g id="Group-76" transform="translate(0.000000, 82.094340)">
                                    <mask id="mask-4" fill="white">
                                        <use xlink:href="#path-3"></use>
                                    </mask>
                                    <g id="Clip-75"></g>
                                    <path d="M59.3640013,29.9483031 C59.3640013,46.3412465 46.0733597,59.6290075 29.6832969,59.6290075 C13.2917937,59.6290075 -0.000288050314,46.3412465 -0.000288050314,29.9483031 C-0.000288050314,13.5568 13.2917937,0.269038994 29.6832969,0.269038994 C46.0733597,0.269038994 59.3640013,13.5568 59.3640013,29.9483031" id="Fill-74" fill="#FEC00F" mask="url(#mask-4)"></path>
                                </g>
                                <path d="M57.8646994,121.355021 L31.0169698,94.5058516 L31.0083283,94.5173736 C30.6410642,94.1659522 30.1816239,93.9571157 29.6832969,93.9571157 C28.4792465,93.9571157 27.502756,95.161166 27.502756,96.6503862 C27.502756,97.5937509 27.8945044,98.4218956 28.4893283,98.9014994 L28.4850075,98.9058201 L29.4326931,99.8520654 L29.2339384,99.8520654 L28.9574101,100.866003 L29.1648063,101.044594 L29.1547245,101.246229 L27.8196113,99.9096755 L27.8181711,99.912556 L27.8124101,99.901034 C27.4595484,99.9283987 26.6112403,100.05082 26.6112403,100.05082 C25.9501648,100.020575 25.3697434,100.544826 25.3078126,101.25487 L24.5055925,111.417286 L24.5185547,111.417286 L24.5127937,111.423047 L26.2727811,113.184474 L26.5262654,121.248443 L25.7730138,120.492311 L25.7586113,120.505273 L22.1349384,120.512474 L20.9640138,119.34155 L20.9409698,119.366034 L18.806517,118.235436 L9.44920252,121.362223 L9.46936604,121.375185 L29.8158,141.720179 C42.8961648,141.662569 53.9731396,133.144921 57.8646994,121.355021" id="Fill-77" fill="#F99B1C"></path>
                                <polygon id="Fill-79" fill="#FFFFFF" points="32.1961038 126.051394 31.910934 122.866997 27.4691981 122.884281 27.2286761 126.080199 24.0529214 124.985608 20.3212296 126.162293 29.7303931 129.173859 39.1049906 126.051394 35.3617767 124.926557"></polygon>
                                <polygon id="Fill-81" fill="#FFFFFF" points="40.5126925 118.24667 38.3422333 119.384469 41.5194283 120.47906 33.5706799 120.493463 33.8342459 122.112306 42.3086862 122.084941 39.7810447 123.193935 43.5285792 124.315891 49.9175352 121.261117"></polygon>
                                <polygon id="Fill-83" fill="#FFFFFF" points="25.5405572 122.138518 25.7839597 120.505273 17.8352113 120.521116 21.0008843 119.397719 18.8059409 118.235436 9.44862642 121.362223 15.8764692 124.450122 19.6096013 123.274877 17.0689975 122.165883"></polygon>
                                <path d="M29.6827208,99.3448088 C30.8867711,99.3448088 31.8632616,98.137878 31.8632616,96.6500981 C31.8632616,95.1623182 30.8867711,93.9568277 29.6827208,93.9568277 C28.4786704,93.9568277 27.5021799,95.1623182 27.5021799,96.6500981 C27.5021799,98.137878 28.4786704,99.3448088 29.6827208,99.3448088" id="Fill-85" fill="#FFFFFF"></path>
                                <path d="M25.8993239,111.517959 L26.0332673,111.517959 C26.0951981,111.519399 26.1585692,111.519399 26.2219403,111.52372 L26.5474371,121.929538 L29.5172358,121.929538 C29.6050912,118.894928 29.5503616,113.574638 29.5244371,111.517959 L29.8268899,111.517959 L30.1523868,121.929538 L33.1221855,121.929538 C33.2129214,118.897808 33.1553113,113.587601 33.130827,111.526601 C33.1970786,111.52084 33.2633302,111.519399 33.3339025,111.517959 L33.3972736,111.517959 C33.3972736,111.516519 33.3987138,111.515079 33.3987138,111.513638 C33.8840786,111.487714 34.3708836,111.456028 34.8605692,111.417142 L34.0540283,101.254726 C33.9935377,100.546123 33.4188774,100.020431 32.7578019,100.050676 C32.7347579,100.050676 31.8331604,99.9282547 31.4774182,99.9023302 L31.4687767,99.9340157 L32.4049403,100.723274 L31.287305,101.286412 L31.8057956,102.172167 L30.4173931,105.234142 L30.1984748,101.04589 L30.4087516,100.865858 L30.1336635,99.8519214 L29.2335063,99.8519214 L28.956978,100.865858 L29.1658145,101.04589 L28.9425755,105.378167 L27.4879214,102.172167 L28.0035314,101.286412 L26.8887767,100.723274 L27.8220597,99.9340157 L27.811978,99.9023302 C27.4591164,99.9282547 26.6108082,100.050676 26.6108082,100.050676 C25.9497327,100.020431 25.3693113,100.544682 25.3073805,101.254726 L24.5051604,111.417142 C24.9689214,111.453148 25.4326824,111.483393 25.8964434,111.506437 C25.8964434,111.510758 25.8993239,111.515079 25.8993239,111.517959" id="Fill-87" fill="#FFFFFF"></path>
                                <path d="M148.37126,164.869198 C148.37126,164.565305 148.296367,164.283016 148.182587,164.025211 C140.978449,157.72555 131.405097,151.219934 126.44343,150.826745 L79.7043862,146.883336 C78.2050843,146.763796 76.7360277,146.84877 75.3217006,147.116657 L75.3217006,151.610242 C75.9050025,151.572796 76.4883044,151.555513 77.0816881,151.577116 L124.296015,153.530097 C129.433392,153.740374 139.119084,159.924814 146.497493,166.911475 C147.540235,166.858186 148.37126,165.96955 148.37126,164.869198" id="Fill-89" fill="#474F59"></path>
                                <path d="M146.931009,166.419197 C139.509392,159.432536 129.757449,153.248096 124.591267,153.036379 L77.0932101,151.086279 C76.4940654,151.060354 75.9064428,151.080518 75.3217006,151.116524 L75.3217006,151.61053 C75.9050025,151.571643 76.4883044,151.555801 77.0816881,151.577404 L124.296015,153.530386 C129.433392,153.740662 139.119084,159.925103 146.497493,166.911763 C147.152808,166.878637 147.724587,166.512813 148.057286,165.974159 C147.74187,166.231964 147.355883,166.396153 146.931009,166.419197" id="Fill-91" fill="#0E303F"></path>
                                <path d="M77.8692176,164.869198 C77.8692176,164.565305 77.9412302,164.283016 78.0550101,164.025211 C85.2605887,157.72555 94.8339409,151.219934 99.7956075,150.826745 L146.531771,146.883336 C148.032513,146.763796 149.50301,146.84877 150.917337,147.116657 L150.917337,151.610242 C150.335475,151.572796 149.752174,151.555513 149.155909,151.577116 L101.944463,153.530097 C96.804205,153.740374 87.1185132,159.924814 79.7415447,166.911475 C78.6988025,166.858186 77.8692176,165.96955 77.8692176,164.869198" id="Fill-93" fill="#474F59"></path>
                                <path d="M79.3109094,166.419197 C86.7310855,159.432536 96.4787082,153.248096 101.647771,153.036379 L149.145828,151.086279 C149.742092,151.060354 150.332595,151.080518 150.917337,151.116524 L150.917337,151.61053 C150.335475,151.571643 149.752174,151.555801 149.155909,151.577404 L101.944463,153.530386 C96.804205,153.740662 87.1185132,159.925103 79.7415447,166.911763 C79.0862302,166.878637 78.5158906,166.512813 78.1817522,165.974159 C78.495727,166.231964 78.8817145,166.396153 79.3109094,166.419197" id="Fill-95" fill="#0E303F"></path>
                                <path d="M78.467066,145.777367 C79.1382233,144.224776 80.6130409,142.944392 82.2261226,142.672185 C90.0481289,141.426367 97.9407075,141.479657 105.754072,142.820531 C107.305223,143.10426 108.738274,144.30687 109.438236,145.777367 L110.885689,145.777367 C110.09067,143.586745 108.129047,141.691374 105.824645,141.240575 C101.912921,140.533411 97.926305,140.151745 93.992978,140.12582 C90.0625314,140.097015 86.0715943,140.425392 82.1497893,141.077826 C80.2313742,141.409084 76.0848899,144.414889 76.0848899,144.412009 C75.6628962,144.47538 75.3215566,144.907455 75.3229923,145.375537 L75.3229923,145.777367 L78.467066,145.777367 Z" id="Fill-97" fill="#0E303F"></path>
                                <path d="M108.591368,156.241803 C107.931733,158.45691 105.635972,160.408451 103.79677,160.51791 C97.2594686,160.830445 90.7236069,160.830445 84.186305,160.506388 C82.3442233,160.394048 80.0542233,158.422344 79.3917075,156.181313 C78.6485377,153.503885 78.2179025,150.850942 78.0897201,148.177835 C77.986022,145.948325 79.9764497,143.694331 82.2261226,143.327067 C90.0481289,142.121577 97.9407075,142.173426 105.754072,143.471092 C107.997984,143.867162 109.992733,146.121155 109.883274,148.326181 C109.762292,150.970482 109.333097,153.5903 108.591368,156.241803" id="Fill-99" fill="#FFFFFF" opacity="0.400000006"></path>
                                <path d="M108.591368,156.241803 C107.931733,158.45691 105.635972,160.408451 103.79677,160.51791 C97.2594686,160.830445 90.7236069,160.830445 84.186305,160.506388 C82.3442233,160.394048 80.0542233,158.422344 79.3917075,156.181313 C78.6485377,153.503885 78.2179025,150.850942 78.0897201,148.177835 C77.986022,145.948325 79.9764497,143.694331 82.2261226,143.327067 C90.0481289,142.121577 97.9407075,142.173426 105.754072,143.471092 C107.997984,143.867162 109.992733,146.121155 109.883274,148.326181 C109.762292,150.970482 109.333097,153.5903 108.591368,156.241803 M105.824645,141.941545 C101.912921,141.260306 97.926305,140.891602 93.992978,140.865677 C90.0625314,140.839753 86.0715943,141.153728 82.1497893,141.787438 C80.2313742,142.105734 76.0848899,145.010721 76.0848899,145.006401 C75.6628962,145.068331 75.3215566,145.487445 75.3229923,145.939684 L75.3229923,151.198042 C75.3229923,151.651721 75.7003428,151.808709 76.0863302,151.951294 C76.588978,152.131325 77.2558145,153.126539 77.3796761,153.76313 C77.5712296,154.739621 77.8031101,155.718992 78.0767579,156.698363 C78.8876195,159.408916 81.650022,161.900552 84.1214937,162.067621 C87.3937453,162.249092 90.7178459,162.344149 93.9915377,162.344149 C97.2681101,162.344149 100.58789,162.249092 103.873104,162.069061 C106.331613,161.901992 109.098336,159.436281 109.909198,156.734369 C110.676852,154.005092 111.130531,151.280136 111.258714,148.560942 C111.401299,145.63435 108.921186,142.526287 105.824645,141.941545" id="Fill-101" fill="#0E303F"></path>
                                <path d="M80.6049755,158.372655 C80.0591201,157.723102 79.6227239,156.972731 79.3908434,156.182033 C78.6491138,153.503165 78.2184786,150.850221 78.0902962,148.178555 C77.9865981,145.947605 79.9755855,143.695052 82.2266987,143.327787 C90.048705,142.122297 97.9412836,142.174146 105.754648,143.470372 C106.808913,143.651844 107.809887,144.25675 108.560258,145.069052 C107.785403,143.977341 106.585674,143.126152 105.298089,142.908674 C97.4804031,141.618209 89.5863843,141.599486 81.7672585,142.856825 C79.5175855,143.239932 77.5285981,145.501127 77.6337365,147.723435 C77.7561579,150.38646 78.1882333,153.023561 78.9314031,155.695228 C79.2237742,156.693322 79.8459629,157.625165 80.6049755,158.372655" id="Fill-103" fill="#474F59"></path>
                                <path d="M148.032369,145.777367 C147.362652,144.224776 145.883514,142.944392 144.271872,142.672185 C136.449866,141.426367 128.558728,141.479657 120.743923,142.820531 C119.191331,143.10426 117.761162,144.30687 117.06264,145.777367 L115.615187,145.777367 C116.407325,143.586745 118.367508,141.691374 120.67335,141.240575 C124.587954,140.533411 128.57169,140.151745 132.505017,140.12582 C136.436904,140.097015 140.426401,140.425392 144.351086,141.077826 C146.269501,141.409084 150.414545,144.414889 150.413105,144.412009 C150.835099,144.47538 151.176438,144.907455 151.176438,145.375537 L151.176438,145.777367 L148.032369,145.777367 Z" id="Fill-105" fill="#0E303F"></path>
                                <path d="M117.907923,156.241803 C118.567558,158.45691 120.863319,160.408451 122.701081,160.51791 C129.238382,160.830445 135.775684,160.830445 142.311546,160.506388 C144.153628,160.394048 146.445068,158.422344 147.107584,156.181313 C147.850753,153.503885 148.282829,150.850942 148.40525,148.177835 C148.511829,145.948325 146.518521,143.694331 144.271728,143.327067 C136.449722,142.121577 128.558584,142.173426 120.743779,143.471092 C118.496986,143.867162 116.507999,146.121155 116.613137,148.326181 C116.735558,150.970482 117.167634,153.5903 117.907923,156.241803" id="Fill-107" fill="#FFFFFF" opacity="0.400000006"></path>
                                <path d="M117.907923,156.241803 C118.567558,158.45691 120.863319,160.408451 122.701081,160.51791 C129.238382,160.830445 135.775684,160.830445 142.311546,160.506388 C144.153628,160.394048 146.445068,158.422344 147.107584,156.181313 C147.850753,153.503885 148.282829,150.850942 148.40525,148.177835 C148.511829,145.948325 146.518521,143.694331 144.271728,143.327067 C136.449722,142.121577 128.558584,142.173426 120.743779,143.471092 C118.496986,143.867162 116.507999,146.121155 116.613137,148.326181 C116.735558,150.970482 117.167634,153.5903 117.907923,156.241803 M120.673206,141.941545 C124.58781,141.260306 128.571546,140.891602 132.504873,140.865677 C136.43676,140.839753 140.426257,141.153728 144.350942,141.787438 C146.269357,142.105734 150.414401,145.010721 150.412961,145.006401 C150.834955,145.068331 151.176294,145.487445 151.176294,145.939684 L151.176294,151.198042 C151.176294,151.651721 150.801829,151.808709 150.412961,151.951294 C149.908873,152.131325 149.244917,153.126539 149.121055,153.76313 C148.926621,154.739621 148.694741,155.718992 148.421093,156.698363 C147.610231,159.408916 144.847829,161.900552 142.376357,162.067621 C139.104106,162.249092 135.782886,162.344149 132.506313,162.344149 C129.231181,162.344149 125.912842,162.249092 122.626187,162.069061 C120.167678,161.901992 117.400955,159.436281 116.588653,156.734369 C115.820999,154.005092 115.367319,151.280136 115.239137,148.560942 C115.100873,145.63435 117.576665,142.526287 120.673206,141.941545" id="Fill-109" fill="#0E303F"></path>
                                <path d="M145.893019,158.372655 C146.440315,157.723102 146.875271,156.972731 147.108592,156.182033 C147.850321,153.503165 148.282397,150.850221 148.404818,148.178555 C148.511397,145.947605 146.519529,143.695052 144.271296,143.327787 C136.44929,142.122297 128.558152,142.174146 120.743347,143.470372 C119.687642,143.651844 118.688108,144.25675 117.939177,145.069052 C118.712592,143.977341 119.915202,143.126152 121.202787,142.908674 C129.017592,141.618209 136.911611,141.599486 144.732177,142.856825 C146.978969,143.239932 148.973718,145.501127 148.865699,147.723435 C148.741837,150.38646 148.312642,153.023561 147.569472,155.695228 C147.272781,156.693322 146.652032,157.625165 145.893019,158.372655" id="Fill-111" fill="#474F59"></path>
                                <path d="M113.785491,144.586135 C112.381246,144.658148 110.984202,144.433469 109.581397,143.889053 C110.879064,145.765701 111.406196,149.072519 110.995724,150.950607 C111.355787,149.186299 112.624648,148.742701 113.785491,148.997626 L113.785491,144.586135 Z" id="Fill-113" fill="#0E303F"></path>
                                <path d="M112.675777,144.586135 C114.077142,144.658148 115.475626,144.433469 116.879872,143.889053 C115.582205,145.765701 115.056513,149.072519 115.464104,150.950607 C115.105482,149.186299 113.83374,148.742701 112.675777,148.997626 L112.675777,144.586135 Z" id="Fill-115" fill="#0E303F"></path>
                            </g>
                        </g>
                    </g>
                </g>
            </g>
        </g>
    </g>
</svg>