<?xml version="1.0" encoding="UTF-8"?>
<svg width="209px" height="217px" viewBox="0 0 209 217" version="1.1" xmlns="http://www.w3.org/2000/svg" xmlns:xlink="http://www.w3.org/1999/xlink">
    <!-- Generator: Sketch 59.1 (86144) - https://sketch.com -->
    <title>how_to_2_i</title>
    <desc>Created with Sketch.</desc>
    <defs>
        <polygon id="path-1" points="0 0.7107 180.76485 0.7107 180.76485 114.7737 0 114.7737"></polygon>
        <polygon id="path-3" points="0 217.5 208.689 217.5 208.689 0.2865 0 0.2865"></polygon>
        <path d="M3.4515,7.4 L3.444,7.4 L3.444,10.2365 C1.8915,11.294 0.9795,12.527 0.9315,13.847 L0.9315,13.847 L0.9225,13.847 L0.9225,18.05 L0.9315,18.05 C0.993,19.1825 1.689,20.2535 2.8875,21.2045 L2.8875,21.2045 L2.8875,24.7745 L2.8965,24.7745 C3.105,28.7105 10.9875,31.8755 20.6895,31.8755 L20.6895,31.8755 C30.3915,31.8755 38.274,28.7105 38.481,24.7745 L38.481,24.7745 L38.4945,24.7745 L38.4945,20.5715 L38.484,20.5715 C38.439,19.4195 37.743,18.3335 36.528,17.372 L36.528,17.372 L36.528,15.17 C38.0655,14.1245 38.9685,12.908 39.0405,11.603 L39.0405,11.603 L39.0495,11.603 L39.0495,7.4 L39.045,7.4 C38.8905,3.443 30.984,0.2555 21.252,0.2555 L21.252,0.2555 C11.508,0.2555 3.603,3.443 3.4515,7.4" id="path-5"></path>
    </defs>
    <g id="current" stroke="none" stroke-width="1" fill="none" fill-rule="evenodd">
        <g id="01-iq_main-calculator-bronze" transform="translate(-627.000000, -2829.000000)">
            <g id="block-3" transform="translate(0.000000, 2467.000000)">
                <g id="Group" transform="translate(140.000000, 140.000000)">
                    <g id="Group-2" transform="translate(0.000000, 210.000000)">
                        <g id="how_to_2_i" transform="translate(487.000000, 12.000000)">
                            <g id="Group-70" transform="translate(0.000000, 0.213500)">
                                <path d="M208.689,128.27505 C208.689,139.04805 199.956,147.78405 189.1815,147.78405 C178.4055,147.78405 169.674,139.04805 169.674,128.27505 C169.674,117.50205 178.4055,108.76905 189.1815,108.76905 C199.956,108.76905 208.689,117.50205 208.689,128.27505" id="Fill-1" fill="#FEC00F"></path>
                                <path d="M208.09425,128.27505 C208.09425,138.71955 199.62525,147.18555 189.18225,147.18555 C178.73475,147.18555 170.26875,138.71955 170.26875,128.27505 C170.26875,117.83055 178.73475,109.36605 189.18225,109.36605 C199.62525,109.36605 208.09425,117.83055 208.09425,128.27505" id="Fill-3" fill="#F99B1C"></path>
                                <path d="M204.0747,128.27505 C204.0747,136.49805 197.4087,143.16705 189.1812,143.16705 C180.9552,143.16705 174.2892,136.49805 174.2892,128.27505 C174.2892,120.05205 180.9552,113.38305 189.1812,113.38305 C197.4087,113.38305 204.0747,120.05205 204.0747,128.27505" id="Fill-5" fill="#FEC00F"></path>
                                <path d="M192.9609,131.8785 C192.9609,131.4735 192.8859,131.118 192.7299,130.8255 C192.5769,130.5315 192.3744,130.2765 192.1134,130.0635 C191.8524,129.8505 191.5479,129.666 191.1894,129.5115 C190.8414,129.3555 190.4679,129.2115 190.0644,129.078 L189.6474,135.192 C190.1799,135.144 190.6494,135.0255 191.0634,134.8395 C191.4759,134.6595 191.8254,134.421 192.1044,134.1375 C192.3879,133.851 192.6009,133.515 192.7434,133.1385 C192.8889,132.7545 192.9609,132.3375 192.9609,131.8785 L192.9609,131.8785 Z M186.1509,123.729 C186.1509,124.125 186.2199,124.467 186.3579,124.7535 C186.4959,125.043 186.6864,125.2995 186.9339,125.52 C187.1829,125.7435 187.4664,125.9325 187.7919,126.102 C188.1189,126.261 188.4804,126.4095 188.8569,126.5415 L189.2304,121.005 C188.6994,121.056 188.2404,121.161 187.8474,121.3245 C187.4649,121.4895 187.1409,121.692 186.8889,121.938 C186.6429,122.1825 186.4554,122.463 186.3339,122.769 C186.2079,123.075 186.1509,123.393 186.1509,123.729 L186.1509,123.729 Z M188.1324,137.022 C187.1499,136.932 186.2439,136.689 185.4309,136.287 C184.6179,135.8955 183.9189,135.3855 183.3249,134.7735 L183.9744,133.7685 C184.0329,133.6785 184.1184,133.6035 184.2234,133.5495 C184.3269,133.4895 184.4394,133.464 184.5549,133.464 C184.7079,133.464 184.8819,133.539 185.0799,133.6935 C185.2764,133.851 185.5179,134.028 185.8059,134.226 C186.0924,134.427 186.4329,134.6235 186.8319,134.814 C187.2264,134.9985 187.7034,135.1245 188.2554,135.192 L188.7144,128.673 C188.1459,128.5005 187.5789,128.31 187.0284,128.091 C186.4734,127.875 185.9784,127.5915 185.5389,127.2435 C185.1039,126.894 184.7514,126.459 184.4859,125.925 C184.2234,125.4 184.0869,124.737 184.0869,123.939 C184.0869,123.339 184.2054,122.7585 184.4349,122.184 C184.6719,121.6185 185.0109,121.107 185.4549,120.666 C185.8989,120.222 186.4494,119.8575 187.1079,119.5785 C187.7559,119.2965 188.5149,119.1495 189.3654,119.1495 L189.4839,117.3585 C189.5019,117.207 189.5634,117.066 189.6699,116.9445 C189.7764,116.823 189.9204,116.7615 190.0989,116.7615 L190.9074,116.7615 L190.7424,119.1885 C191.5974,119.298 192.3369,119.5155 192.9609,119.8515 C193.5819,120.1905 194.1384,120.5955 194.6274,121.0665 L194.1009,121.878 C193.9359,122.124 193.7469,122.2455 193.5354,122.2455 C193.4214,122.2455 193.2804,122.193 193.1139,122.091 C192.9474,121.9905 192.7434,121.869 192.5004,121.734 C192.2679,121.6005 191.9934,121.4685 191.6829,121.3335 C191.3724,121.197 191.0154,121.0995 190.6194,121.041 L190.2099,126.981 C190.7994,127.164 191.3754,127.362 191.9529,127.5735 C192.5244,127.785 193.0419,128.061 193.4964,128.4 C193.9554,128.733 194.3289,129.1545 194.6064,129.663 C194.8944,130.167 195.0324,130.797 195.0324,131.5515 C195.0324,132.2895 194.9124,132.9825 194.6664,133.6335 C194.4189,134.283 194.0589,134.853 193.5954,135.345 C193.1229,135.8385 192.5439,136.2375 191.8644,136.545 C191.1804,136.8525 190.3989,137.0085 189.5214,137.0085 L189.3774,139.203 C189.3654,139.3575 189.2994,139.4985 189.1839,139.617 C189.0744,139.734 188.9349,139.7925 188.7639,139.7925 L187.9509,139.7925 L188.1324,137.022 Z" id="Fill-7" fill="#F99B1C"></path>
                                <path d="M180.48195,166.9908 L180.48195,57.9858 C180.48195,55.5033 178.47195,53.4933 175.99245,53.4933 L4.76745,53.4933 C2.28645,53.4933 0.28245,55.5033 0.28245,57.9858 L0.28245,166.9908 L180.48195,166.9908 Z" id="Fill-9" fill="#424242"></path>
                                <g id="Group-13" transform="translate(0.000000, 52.500000)">
                                    <mask id="mask-2" fill="white">
                                        <use xlink:href="#path-1"></use>
                                    </mask>
                                    <g id="Clip-12"></g>
                                    <path d="M0.56535,114.2082 L180.19935,114.2082 L180.19935,5.4867 C180.19935,3.1647 178.31235,1.2762 175.99185,1.2762 L4.76835,1.2762 C2.45085,1.2762 0.56535,3.1647 0.56535,5.4867 L0.56535,114.2082 Z M180.48135,114.7737 L0.28335,114.7737 C0.12735,114.7737 -0.00015,114.6462 -0.00015,114.4902 L-0.00015,5.4867 C-0.00015,2.8542 2.13885,0.7107 4.76835,0.7107 L175.99185,0.7107 C178.62285,0.7107 180.76485,2.8542 180.76485,5.4867 L180.76485,114.4902 C180.76485,114.6462 180.63735,114.7737 180.48135,114.7737 L180.48135,114.7737 Z" id="Fill-11" fill="#676767" mask="url(#mask-2)"></path>
                                </g>
                                <path d="M120.34125,199.02555 L60.42225,199.02555 C58.90275,199.02555 57.66525,200.47755 57.66525,202.26105 L57.66525,203.47605 L123.09525,203.47605 L123.09525,202.26105 C123.09525,200.47755 121.86075,199.02555 120.34125,199.02555" id="Fill-14" fill="#FFFFFF"></path>
                                <path d="M0.28275,166.9908 L0.28275,179.8653 C0.28275,182.3388 2.28675,184.3458 4.76775,184.3458 L175.99275,184.3458 C178.47225,184.3458 180.48225,182.3388 180.48225,179.8653 L180.48225,166.9908 L0.28275,166.9908 Z" id="Fill-16" fill="#FFFFFF"></path>
                                <mask id="mask-4" fill="white">
                                    <use xlink:href="#path-3"></use>
                                </mask>
                                <g id="Clip-19"></g>
                                <polygon id="Fill-18" fill="#FFFFFF" mask="url(#mask-4)" points="7.6635 159.546 173.0985 159.546 173.0985 60.5025 7.6635 60.5025"></polygon>
                                <polygon id="Fill-18" fill="#82C3FF" opacity="0.600000024" mask="url(#mask-4)" points="7.6635 159.546 173.0985 159.546 173.0985 60.5025 7.6635 60.5025"></polygon>
                                <path d="M116.94585,199.02555 C115.74735,194.13105 114.55035,189.23955 113.35335,184.34655 L67.41285,184.34655 C66.21735,189.23955 65.02035,194.13105 63.82185,199.02555 L116.94585,199.02555 Z" id="Fill-20" fill="#CDD5D8" mask="url(#mask-4)"></path>
                                <path d="M63.8217,199.02555 L88.1802,199.02555 L102.8577,184.34655 L67.4127,184.34655 C66.2172,189.23955 65.0202,194.13105 63.8217,199.02555" id="Fill-21" fill="#CDD5D8" mask="url(#mask-4)"></path>
                                <polygon id="Fill-22" fill="#1879D4" mask="url(#mask-4)" points="20.814 95.4285 159.948 95.4285 159.948 88.0845 20.814 88.0845"></polygon>
                                <polygon id="Fill-23" fill="#82C3FF" mask="url(#mask-4)" points="30.82035 100.8414 28.74285 132.6549 38.20335 132.6549 47.66985 132.6549 45.59085 100.8414"></polygon>
                                <polygon id="Fill-24" fill="#1879D4" mask="url(#mask-4)" points="28.9335 102.7725 47.4795 102.7725 47.4795 95.4285 28.9335 95.4285"></polygon>
                                <polygon id="Fill-25" fill="#82C3FF" mask="url(#mask-4)" points="28.9335 97.7475 47.4795 97.7475 47.4795 95.427 28.9335 95.427"></polygon>
                                <polygon id="Fill-26" fill="#1879D4" mask="url(#mask-4)" points="26.2245 141.807 50.187 141.807 50.187 132.5325 26.2245 132.5325"></polygon>
                                <polygon id="Fill-27" fill="#82C3FF" mask="url(#mask-4)" points="26.2245 141.807 50.187 141.807 50.187 139.4865 26.2245 139.4865"></polygon>
                                <polygon id="Fill-28" fill="#82C3FF" mask="url(#mask-4)" points="65.60595 100.8414 63.52395 132.6549 72.98895 132.6549 82.45245 132.6549 80.37495 100.8414"></polygon>
                                <polygon id="Fill-29" fill="#1879D4" mask="url(#mask-4)" points="63.714 102.7725 82.2645 102.7725 82.2645 95.4285 63.714 95.4285"></polygon>
                                <polygon id="Fill-30" fill="#82C3FF" mask="url(#mask-4)" points="63.714 97.7475 82.2645 97.7475 82.2645 95.427 63.714 95.427"></polygon>
                                <polygon id="Fill-31" fill="#1879D4" mask="url(#mask-4)" points="61.008 141.807 84.9705 141.807 84.9705 132.5325 61.008 132.5325"></polygon>
                                <polygon id="Fill-32" fill="#82C3FF" mask="url(#mask-4)" points="61.008 141.807 84.9705 141.807 84.9705 139.4865 61.008 139.4865"></polygon>
                                <polygon id="Fill-33" fill="#82C3FF" mask="url(#mask-4)" points="100.3872 100.8414 98.3082 132.6549 107.7732 132.6549 117.2337 132.6549 115.1547 100.8414"></polygon>
                                <polygon id="Fill-34" fill="#1879D4" mask="url(#mask-4)" points="98.496 102.7725 117.048 102.7725 117.048 95.4285 98.496 95.4285"></polygon>
                                <polygon id="Fill-35" fill="#82C3FF" mask="url(#mask-4)" points="98.496 97.7475 117.048 97.7475 117.048 95.427 98.496 95.427"></polygon>
                                <polygon id="Fill-36" fill="#1879D4" mask="url(#mask-4)" points="95.79 141.807 119.7525 141.807 119.7525 132.5325 95.79 132.5325"></polygon>
                                <polygon id="Fill-37" fill="#82C3FF" mask="url(#mask-4)" points="95.79 141.807 119.7525 141.807 119.7525 139.4865 95.79 139.4865"></polygon>
                                <polygon id="Fill-38" fill="#82C3FF" mask="url(#mask-4)" points="135.1713 100.8414 133.0908 132.6549 142.5558 132.6549 152.0193 132.6549 149.9403 100.8414"></polygon>
                                <polygon id="Fill-39" fill="#1879D4" mask="url(#mask-4)" points="133.281 102.7725 151.8315 102.7725 151.8315 95.4285 133.281 95.4285"></polygon>
                                <polygon id="Fill-40" fill="#82C3FF" mask="url(#mask-4)" points="133.281 97.7475 151.8315 97.7475 151.8315 95.427 133.281 95.427"></polygon>
                                <polygon id="Fill-41" fill="#1879D4" mask="url(#mask-4)" points="130.575 141.807 154.5375 141.807 154.5375 132.5325 130.575 132.5325"></polygon>
                                <polygon id="Fill-42" fill="#82C3FF" mask="url(#mask-4)" points="130.575 141.807 154.5375 141.807 154.5375 139.4865 130.575 139.4865"></polygon>
                                <polygon id="Fill-43" fill="#1879D4" mask="url(#mask-4)" points="20.814 159.198 159.948 159.198 159.948 141.228 20.814 141.228"></polygon>
                                <polygon id="Fill-44" fill="#82C3FF" mask="url(#mask-4)" points="54.438 159.198 126.324 159.198 126.324 156.0615 54.438 156.0615"></polygon>
                                <polygon id="Fill-45" fill="#82C3FF" mask="url(#mask-4)" points="54.438 153.108 126.324 153.108 126.324 149.9715 54.438 149.9715"></polygon>
                                <polygon id="Fill-46" fill="#82C3FF" mask="url(#mask-4)" points="54.438 147.0195 126.324 147.0195 126.324 143.883 54.438 143.883"></polygon>
                                <polygon id="Fill-47" fill="#82C3FF" mask="url(#mask-4)" points="90.38235 40.2585 126.90135 64.179 163.42335 88.0965 90.38235 88.0965 17.33835 88.0965 53.85885 64.179"></polygon>
                                <polygon id="Fill-48" fill="#1879D4" mask="url(#mask-4)" points="36.77055 82.30095 90.38205 47.19045 143.98905 82.30095"></polygon>
                                <polygon id="Fill-49" fill="#82C3FF" mask="url(#mask-4)" points="126.9009 75.4836 90.3819 51.5646 53.8599 75.4836 43.4484 82.3011 47.4324 82.3011 53.8599 78.0921 90.3819 54.1731 126.9009 78.0921 133.3269 82.3011 137.3124 82.3011"></polygon>
                                <path d="M151.81785,7.91475 C159.38985,-0.59925 171.45585,-2.23275 178.75785,4.26375 C186.05835,10.76325 185.84535,22.93425 178.26735,31.44675 C170.69685,39.95775 158.63385,41.59125 151.33035,35.09325 C144.02685,28.59675 144.24585,16.42875 151.81785,7.91475" id="Fill-50" fill="#FEC00F" mask="url(#mask-4)"></path>
                                <path d="M152.17965,8.23395 C159.52065,-0.01905 170.57565,-2.17005 176.87265,3.43245 C183.17115,9.03345 182.32215,20.26545 174.97515,28.51845 C167.63715,36.76995 156.58365,38.92245 150.28365,33.31845 C143.98965,27.71595 144.83715,16.48695 152.17965,8.23395" id="Fill-51" fill="#F99B1C" mask="url(#mask-4)"></path>
                                <path d="M154.15275,9.7413 C159.93375,3.2403 168.64275,1.5453 173.60175,5.9583 C178.56075,10.3713 177.89325,19.2153 172.11225,25.7148 C166.33275,32.2113 157.62225,33.9063 152.66475,29.4948 C147.70575,25.0848 148.37175,16.2393 154.15275,9.7413" id="Fill-52" fill="#FEC00F" mask="url(#mask-4)"></path>
                                <path d="M163.3872,12.8541 C163.1022,13.1766 162.9012,13.4961 162.7872,13.8096 C162.6672,14.1231 162.6132,14.4336 162.6222,14.7411 C162.6297,15.0531 162.6882,15.3576 162.7902,15.6726 C162.8907,15.9816 163.0182,16.2966 163.1622,16.6191 L167.7147,12.0111 C167.3577,11.7636 166.9917,11.6061 166.6137,11.5296 C166.2357,11.4516 165.8607,11.4516 165.4887,11.5266 C165.1212,11.6016 164.7567,11.7516 164.4027,11.9736 C164.0457,12.1986 163.7082,12.4911 163.3872,12.8541 L163.3872,12.8541 Z M161.7642,22.9446 C162.0417,22.6341 162.2382,22.3251 162.3567,22.0236 C162.4812,21.7221 162.5442,21.4161 162.5487,21.1101 C162.5562,20.7996 162.5217,20.4951 162.4437,20.1906 C162.3567,19.8876 162.2472,19.5756 162.1077,19.2711 L157.9947,23.4456 C158.3487,23.6916 158.7012,23.8551 159.0507,23.9346 C159.3972,24.0111 159.7317,24.0231 160.0617,23.9661 C160.3782,23.9031 160.6887,23.7846 160.9752,23.6061 C161.2692,23.4321 161.5272,23.2101 161.7642,22.9446 L161.7642,22.9446 Z M169.9137,11.3766 C170.4432,11.9781 170.8167,12.6561 171.0267,13.4061 C171.2382,14.1546 171.3042,14.9316 171.2307,15.7341 L170.1327,16.1796 C170.0337,16.2201 169.9302,16.2291 169.8297,16.2201 C169.7247,16.2111 169.6362,16.1721 169.5717,16.1106 C169.4757,16.0266 169.4232,15.8721 169.4127,15.6456 C169.4052,15.4146 169.3827,15.1476 169.3527,14.8311 C169.3212,14.5206 169.2522,14.1861 169.1457,13.8216 C169.0392,13.4631 168.8382,13.1076 168.5517,12.7581 L163.6947,17.6616 C163.9182,18.1026 164.1237,18.5586 164.3007,19.0266 C164.4807,19.4961 164.5812,19.9851 164.6022,20.4951 C164.6202,21.0081 164.5272,21.5376 164.3082,22.1016 C164.0997,22.6611 163.7157,23.2581 163.1547,23.8866 C162.7347,24.3591 162.2517,24.7581 161.7117,25.0851 C161.1687,25.4061 160.6077,25.6266 160.0287,25.7361 C159.4497,25.8516 158.8617,25.8426 158.2692,25.7121 C157.6767,25.5876 157.1202,25.2966 156.6057,24.8406 L155.2752,26.1876 C155.1567,26.3016 155.0217,26.3781 154.8717,26.4186 C154.7232,26.4561 154.5942,26.4306 154.4847,26.3331 L153.9957,25.8996 L155.8062,24.0711 C155.3637,23.5221 155.0727,22.9566 154.9332,22.3551 C154.7937,21.7566 154.7427,21.1371 154.7787,20.5011 L155.6682,20.1426 C155.9427,20.0376 156.1422,20.0451 156.2682,20.1576 C156.3387,20.2161 156.3837,20.3331 156.4182,20.5071 C156.4437,20.6751 156.4827,20.8761 156.5307,21.1161 C156.5817,21.3471 156.6507,21.5991 156.7452,21.8721 C156.8382,22.1421 156.9807,22.4136 157.1832,22.6701 L161.6022,18.1986 C161.3757,17.7411 161.1672,17.2686 160.9677,16.7961 C160.7727,16.3206 160.6572,15.8256 160.6197,15.3141 C160.5777,14.8026 160.6452,14.2701 160.8372,13.7226 C161.0202,13.1691 161.3757,12.5961 161.9067,11.9991 C162.4272,11.4156 162.9867,10.9341 163.5957,10.5531 C164.1987,10.1691 164.8167,9.9111 165.4437,9.7731 C166.0737,9.6366 166.7037,9.6336 167.3277,9.7521 C167.9622,9.8781 168.5382,10.1736 169.0677,10.6431 L170.6967,8.9841 C170.8167,8.8731 170.9532,8.7936 171.1032,8.7636 C171.2502,8.7291 171.3777,8.7561 171.4812,8.8476 L171.9687,9.2811 L169.9137,11.3766 Z" id="Fill-53" fill="#F99B1C" mask="url(#mask-4)"></path>
                                <path d="M168.74115,201.83655 C177.53265,198.73455 189.16515,198.93555 194.70765,202.28655 C200.25165,205.63755 197.61165,210.86955 188.80965,213.97455 C180.01665,217.07655 168.38865,216.87555 162.84315,213.52455 C157.30215,210.17505 159.945267,204.94005 168.74115,201.83655" id="Fill-54" fill="#1778D2" mask="url(#mask-4)"></path>
                                <polygon id="Fill-55" fill="#FFF200" mask="url(#mask-4)" points="139.3875 205.7745 142.0485 205.7745 142.0485 201.5715 139.3875 201.5715"></polygon>
                                <polygon id="Fill-56" fill="#FFF200" mask="url(#mask-4)" points="172.3275 205.7745 174.9945 205.7745 174.9945 201.5715 172.3275 201.5715"></polygon>
                                <path d="M174.99465,205.61445 C174.99465,209.62245 167.02215,212.87595 157.18965,212.87595 C147.35565,212.87595 139.38765,209.62245 139.38765,205.61445 C139.38765,201.60495 147.35565,198.35445 157.18965,198.35445 C167.02215,198.35445 174.99465,201.60495 174.99465,205.61445" id="Fill-57" fill="#FEC011" mask="url(#mask-4)"></path>
                                <path d="M174.99465,201.68715 C174.99465,205.69665 167.02215,208.94865 157.18965,208.94865 C147.35565,208.94865 139.38765,205.69665 139.38765,201.68715 C139.38765,197.67615 147.35565,194.42715 157.18965,194.42715 C167.02215,194.42715 174.99465,197.67615 174.99465,201.68715" id="Fill-58" fill="#F6871F" mask="url(#mask-4)"></path>
                                <path d="M171.20805,200.66175 C171.20805,203.25375 164.93205,205.35375 157.18905,205.35375 C149.44455,205.35375 143.17005,203.25375 143.17005,200.66175 C143.17005,198.06975 149.44455,195.96975 157.18905,195.96975 C164.93205,195.96975 171.20805,198.06975 171.20805,200.66175" id="Fill-59" fill="#FFF200" mask="url(#mask-4)"></path>
                                <polygon id="Fill-60" fill="#FFF200" mask="url(#mask-4)" points="137.4225 199.0485 140.0835 199.0485 140.0835 194.8455 137.4225 194.8455"></polygon>
                                <polygon id="Fill-61" fill="#FFF200" mask="url(#mask-4)" points="170.3655 199.0485 173.0295 199.0485 173.0295 194.8455 170.3655 194.8455"></polygon>
                                <path d="M173.02875,198.88935 C173.02875,202.89735 165.05925,206.15085 155.22825,206.15085 C145.39275,206.15085 137.42175,202.89735 137.42175,198.88935 C137.42175,194.87835 145.39275,191.62635 155.22825,191.62635 C165.05925,191.62635 173.02875,194.87835 173.02875,198.88935" id="Fill-62" fill="#FEC011" mask="url(#mask-4)"></path>
                                <path d="M173.02875,194.96205 C173.02875,198.97455 165.05925,202.22355 155.22825,202.22355 C145.39275,202.22355 137.42175,198.97455 137.42175,194.96205 C137.42175,190.95105 145.39275,187.70055 155.22825,187.70055 C165.05925,187.70055 173.02875,190.95105 173.02875,194.96205" id="Fill-63" fill="#F6871F" mask="url(#mask-4)"></path>
                                <path d="M169.2465,193.93665 C169.2465,196.52865 162.969,198.62865 155.2275,198.62865 C147.48,198.62865 141.2055,196.52865 141.2055,193.93665 C141.2055,191.34465 147.48,189.24465 155.2275,189.24465 C162.969,189.24465 169.2465,191.34465 169.2465,193.93665" id="Fill-64" fill="#FFF200" mask="url(#mask-4)"></path>
                                <polygon id="Fill-65" fill="#FFF200" mask="url(#mask-4)" points="139.944 192.603 142.608 192.603 142.608 188.3985 139.944 188.3985"></polygon>
                                <polygon id="Fill-66" fill="#FFF200" mask="url(#mask-4)" points="172.8885 192.603 175.5495 192.603 175.5495 188.3985 172.8885 188.3985"></polygon>
                                <path d="M175.5498,192.444 C175.5498,196.4565 167.5818,199.707 157.7523,199.707 C147.9168,199.707 139.9443,196.4565 139.9443,192.444 C139.9443,188.436 147.9168,185.1825 157.7523,185.1825 C167.5818,185.1825 175.5498,188.436 175.5498,192.444" id="Fill-67" fill="#FEC011" mask="url(#mask-4)"></path>
                                <path d="M175.5498,188.5152 C175.5498,192.5262 167.5818,195.7782 157.7523,195.7782 C147.9168,195.7782 139.9443,192.5262 139.9443,188.5152 C139.9443,184.5042 147.9168,181.2552 157.7523,181.2552 C167.5818,181.2552 175.5498,184.5042 175.5498,188.5152" id="Fill-68" fill="#F6871F" mask="url(#mask-4)"></path>
                                <path d="M171.76605,187.4913 C171.76605,190.0803 165.49155,192.1848 157.75155,192.1848 C150.00405,192.1848 143.72805,190.0803 143.72805,187.4913 C143.72805,184.8978 150.00405,182.7978 157.75155,182.7978 C165.49155,182.7978 171.76605,184.8978 171.76605,187.4913" id="Fill-69" fill="#FEC011" mask="url(#mask-4)"></path>
                            </g>
                            <g id="Group-73" transform="translate(136.500000, 181.213500)">
                                <mask id="mask-6" fill="white">
                                    <use xlink:href="#path-5"></use>
                                </mask>
                                <g id="Clip-72"></g>
                                <path d="M54.82035,15.4943 C56.89335,24.6788 50.79885,33.8783 41.20635,36.0413 C31.61685,38.2043 22.15785,32.5088 20.08785,23.3258 C18.01635,14.1428 24.11685,4.9463 33.70785,2.7818 C43.29885,0.6188 52.74885,6.3083 54.82035,15.4943" id="Fill-71" fill="#1879D4" opacity="0.300000012" mask="url(#mask-6)"></path>
                            </g>
                            <g id="Group-90" transform="translate(129.000000, 61.713500)">
                                <path d="M65.4009,134.15925 C65.4009,144.29775 57.1824,152.52075 47.0409,152.52075 C36.8979,152.52075 28.6749,144.29775 28.6749,134.15925 C28.6749,124.01775 36.8979,115.79625 47.0409,115.79625 C57.1824,115.79625 65.4009,124.01775 65.4009,134.15925" id="Fill-74" fill="#FEC011"></path>
                                <path d="M64.84275,134.15925 C64.84275,143.98725 56.87475,151.95975 47.04075,151.95975 C37.20675,151.95975 29.23725,143.98725 29.23725,134.15925 C29.23725,124.32375 37.20675,116.35875 47.04075,116.35875 C56.87475,116.35875 64.84275,124.32375 64.84275,134.15925" id="Fill-76" fill="#F6871F"></path>
                                <path d="M61.05765,134.15925 C61.05765,141.89775 54.78165,148.17675 47.04015,148.17675 C39.29865,148.17675 33.01965,141.89775 33.01965,134.15925 C33.01965,126.41625 39.29865,120.13875 47.04015,120.13875 C54.78165,120.13875 61.05765,126.41625 61.05765,134.15925" id="Fill-78" fill="#FEC011"></path>
                                <path d="M50.6001,137.54895 C50.6001,137.16795 50.5251,136.83495 50.3811,136.55595 C50.2446,136.27845 50.0466,136.04145 49.8021,135.84045 C49.5516,135.64095 49.2636,135.46695 48.9321,135.32295 C48.6036,135.17595 48.2526,135.03795 47.8716,134.91495 L47.4756,140.66595 C47.9796,140.62395 48.4206,140.51145 48.8136,140.33595 C49.2006,140.16645 49.5261,139.94595 49.7916,139.67295 C50.0571,139.40745 50.2566,139.09245 50.3946,138.73395 C50.5311,138.37395 50.6001,137.97945 50.6001,137.54895 L50.6001,137.54895 Z M44.1876,129.87945 C44.1876,130.24845 44.2536,130.57245 44.3811,130.84095 C44.5101,131.11695 44.6916,131.35845 44.9256,131.56545 C45.1581,131.77545 45.4251,131.95545 45.7296,132.11145 C46.0416,132.25995 46.3791,132.39945 46.7346,132.52545 L47.0886,127.31595 C46.5846,127.36245 46.1526,127.46145 45.7866,127.61745 C45.4221,127.76895 45.1206,127.95945 44.8806,128.19495 C44.6496,128.42145 44.4741,128.68545 44.3586,128.97495 C44.2446,129.26145 44.1876,129.56295 44.1876,129.87945 L44.1876,129.87945 Z M46.0551,142.39245 C45.1251,142.30695 44.2761,142.07745 43.5126,141.70095 C42.7446,141.33045 42.0861,140.85345 41.5266,140.27445 L42.1371,139.32945 C42.1941,139.24245 42.2766,139.17495 42.3741,139.12095 C42.4701,139.06545 42.5766,139.03845 42.6831,139.03845 C42.8316,139.03845 42.9951,139.11195 43.1811,139.25895 C43.3686,139.40745 43.5951,139.57395 43.8621,139.76295 C44.1306,139.95045 44.4516,140.13195 44.8266,140.31195 C45.2001,140.48895 45.6486,140.60595 46.1721,140.66595 L46.6011,134.53245 C46.0641,134.36895 45.5331,134.19195 45.0141,133.98495 C44.4936,133.77945 44.0286,133.51395 43.6116,133.18845 C43.2006,132.85695 42.8721,132.44745 42.6201,131.94645 C42.3741,131.44995 42.2466,130.82745 42.2466,130.07745 C42.2466,129.51345 42.3561,128.96145 42.5736,128.42145 C42.7926,127.88895 43.1121,127.41045 43.5351,126.99645 C43.9506,126.57795 44.4711,126.23295 45.0876,125.97045 C45.6981,125.70645 46.4151,125.56995 47.2131,125.56995 L47.3256,123.88395 C47.3451,123.73695 47.4021,123.60645 47.4981,123.49245 C47.6001,123.37695 47.7336,123.31995 47.9046,123.31995 L48.6666,123.31995 L48.5061,125.60595 C49.3176,125.70645 50.0106,125.91045 50.6001,126.22995 C51.1821,126.54495 51.7026,126.92745 52.1706,127.37295 L51.6726,128.13495 C51.5151,128.36745 51.3381,128.48145 51.1386,128.48145 C51.0306,128.48145 50.9031,128.43345 50.7396,128.33595 C50.5836,128.24145 50.3946,128.13045 50.1666,128.00145 C49.9446,127.87545 49.6881,127.75095 49.3956,127.62195 C49.1001,127.49445 48.7641,127.40445 48.3936,127.35045 L48.0066,132.94245 C48.5631,133.11045 49.1076,133.29795 49.6476,133.49745 C50.1921,133.69695 50.6706,133.95795 51.1041,134.27745 C51.5376,134.59095 51.8871,134.98845 52.1466,135.46395 C52.4196,135.93645 52.5501,136.53195 52.5501,137.24445 C52.5501,137.93895 52.4331,138.59145 52.2006,139.20045 C51.9726,139.81095 51.6321,140.34945 51.1941,140.81295 C50.7546,141.27495 50.2026,141.65445 49.5666,141.94245 C48.9216,142.23345 48.1881,142.38045 47.3631,142.38045 L47.2266,144.44595 C47.2086,144.59145 47.1486,144.72195 47.0451,144.83295 C46.9416,144.94545 46.8081,144.99795 46.6506,144.99795 L45.8841,144.99795 L46.0551,142.39245 Z" id="Fill-80" fill="#F6871F"></path>
                                <path d="M32.8872,5.06115 C41.7762,12.19215 43.4952,24.80565 36.7302,33.23415 C29.9667,41.66415 17.2767,42.71415 8.3922,35.58315 C-0.4938,28.45065 -2.2128,15.83715 4.5507,7.40565 C11.3157,-1.02135 24.0012,-2.07135 32.8872,5.06115" id="Fill-82" fill="#FEC00F"></path>
                                <path d="M32.54445,5.48595 C41.15895,12.40095 43.27245,24.07995 37.26195,31.57245 C31.24695,39.06495 19.38645,39.53145 10.77045,32.61795 C2.15595,25.70445 0.04845,14.02695 6.06195,6.53445 C12.07245,-0.95805 23.93295,-1.42455 32.54445,5.48595" id="Fill-84" fill="#F99B1C"></path>
                                <path d="M30.22995,8.3688 C37.01445,13.8123 38.67795,23.0118 33.94545,28.9098 C29.20695,34.8123 19.86945,35.1813 13.08345,29.7363 C6.30045,24.2913 4.63845,15.0933 9.37395,9.1938 C14.10945,3.2943 23.44845,2.9253 30.22995,8.3688" id="Fill-86" fill="#FEC00F"></path>
                                <path d="M26.80665,18.72675 C26.46765,18.45525 26.13315,18.27975 25.80765,18.19575 C25.47465,18.10425 25.14465,18.08625 24.82215,18.13275 C24.49215,18.18075 24.16815,18.27825 23.83215,18.42825 C23.50665,18.57675 23.16915,18.74925 22.83015,18.95025 L27.63015,23.29725 C27.90015,22.88325 28.07115,22.46625 28.15665,22.04925 C28.24665,21.63225 28.25265,21.22575 28.17615,20.83425 C28.10115,20.44575 27.95115,20.06775 27.71865,19.71525 C27.48315,19.35975 27.18165,19.03125 26.80665,18.72675 L26.80665,18.72675 Z M16.16415,18.21825 C16.48965,18.47925 16.81215,18.65475 17.12565,18.74925 C17.44515,18.84075 17.76765,18.87225 18.09315,18.83775 C18.42015,18.81225 18.73965,18.73425 19.06515,18.60975 C19.38315,18.47925 19.71465,18.32025 20.04165,18.13725 L15.69015,14.20425 C15.42465,14.61975 15.24765,15.02025 15.15615,15.40875 C15.07065,15.79275 15.05565,16.15875 15.11265,16.50225 C15.17115,16.83975 15.29115,17.15925 15.47715,17.44725 C15.65565,17.74275 15.88665,17.99325 16.16415,18.21825 L16.16415,18.21825 Z M28.27065,25.59525 C27.62865,26.24175 26.90415,26.72925 26.10915,27.04875 C25.31415,27.37125 24.49515,27.53475 23.64915,27.55425 L23.19015,26.42475 C23.14965,26.32125 23.14065,26.21025 23.14965,26.10075 C23.16315,25.98525 23.20815,25.88625 23.27265,25.80675 C23.36265,25.69425 23.52615,25.62225 23.76615,25.58175 C24.00915,25.54425 24.29415,25.48725 24.62565,25.41525 C24.95565,25.34175 25.30965,25.22625 25.69815,25.06575 C26.07765,24.90675 26.45565,24.64575 26.83215,24.29175 L21.71865,19.65225 C21.24765,19.94625 20.76465,20.22675 20.26665,20.47425 C19.76865,20.72925 19.25115,20.89725 18.71265,20.98275 C18.16965,21.06225 17.60715,21.02475 17.01765,20.86725 C16.43265,20.70375 15.80865,20.36475 15.14865,19.83525 C14.65215,19.44075 14.23965,18.96825 13.90215,18.42375 C13.56915,17.88075 13.34565,17.29875 13.23765,16.68675 C13.12665,16.07625 13.14465,15.43875 13.29015,14.78175 C13.43265,14.13075 13.74615,13.49025 14.23665,12.88125 L12.82965,11.60925 C12.71265,11.49225 12.63765,11.35725 12.59265,11.20125 C12.55665,11.04375 12.58365,10.89825 12.68715,10.77075 L13.15365,10.19025 L15.05865,11.91975 C15.64665,11.37525 16.24965,10.98975 16.88865,10.76475 C17.52165,10.54275 18.17715,10.41075 18.85065,10.37175 L19.21215,11.28825 C19.32165,11.56875 19.30965,11.78625 19.19265,11.93775 C19.12665,12.01725 19.00215,12.08325 18.81915,12.13875 C18.64065,12.19275 18.42615,12.25725 18.17715,12.34125 C17.92965,12.42075 17.66115,12.52875 17.37315,12.66225 C17.08365,12.79575 16.79415,12.98625 16.51965,13.23675 L21.18165,17.45775 C21.66915,17.15625 22.17015,16.87125 22.67415,16.59975 C23.17965,16.32825 23.70465,16.14075 24.24465,16.03875 C24.78615,15.93075 25.34865,15.94125 25.92465,16.07925 C26.50515,16.20525 27.10515,16.52325 27.72915,17.02575 C28.33965,17.51175 28.84065,18.05775 29.23215,18.66525 C29.62815,19.26975 29.89365,19.90725 30.03015,20.56875 C30.16515,21.23175 30.15765,21.91125 30.02565,22.60125 C29.88315,23.29875 29.56215,23.95875 29.05665,24.58875 L30.78615,26.14425 C30.90165,26.25975 30.98115,26.39925 31.01865,26.55675 C31.04715,26.71425 31.02165,26.85525 30.91815,26.97525 L30.45165,27.55875 L28.27065,25.59525 Z" id="Fill-88" fill="#F99B1C"></path>
                            </g>
                        </g>
                    </g>
                </g>
            </g>
        </g>
    </g>
</svg>