<svg width="227px" height="218px" viewBox="0 0 227 218" version="1.1" xmlns="http://www.w3.org/2000/svg" xmlns:xlink="http://www.w3.org/1999/xlink">
    <g stroke="none" stroke-width="1" fill="none" fill-rule="evenodd">
        <g transform="translate(-209.000000, -2819.000000)">
            <g transform="translate(0.000000, 2467.000000)">
                <g transform="translate(140.000000, 140.000000)">
                    <g transform="translate(0.000000, 210.000000)">
                        <g transform="translate(69.000000, 2.000000)">
                            <g>
                                <path d="M79.2739592,93.5562741 C78.0756463,97.9063354 77.7359184,102.548254 78.4555238,107.289002 C81.2227619,125.475254 98.2045238,137.992682 116.398497,135.219267 C120.110796,134.658716 123.486456,133.369295 126.659823,131.741689 L152.95785,164.06371 C144.114116,170.038288 133.863599,174.258635 122.596986,175.972716 C81.8991293,182.158852 43.8866667,154.180716 37.6943537,113.489036 C35.6297347,99.8937435 37.4380136,86.6551653 42.2096463,74.7446143 L79.2739592,93.5562741 Z" id="Fill-1" fill="#596273"></path>
                                <path d="M96.4669701,72.6596116 C92.1416163,74.847768 88.4185075,77.8250197 85.4613306,81.5079789 L48.3522354,62.6638905 C56.9380857,48.9620469 69.8956163,38.0675912 85.6728884,32.3138361 L96.4669701,72.6596116 Z" id="Fill-3" fill="#FCBE0F"></path>
                                <path d="M142.626107,90.6715211 C137.602767,77.1549837 124.220577,68.3606639 109.559774,69.1729224 L98.7981211,28.8750177 C99.2613864,28.799351 99.712298,28.6619156 100.183284,28.5877932 C138.604965,22.7444735 174.623842,47.4102626 183.714652,84.4251605 L142.626107,90.6715211 Z" id="Fill-5" fill="#82C3FF"></path>
                                <path d="M137.180578,123.216218 C141.529095,117.857782 144.28398,111.243898 144.662313,104.057109 L185.750857,97.8107483 C187.108224,119.967184 178.488401,140.778605 163.460075,155.487279 L137.180578,123.216218 Z" id="Fill-7" fill="#DCE4E7"></path>
                                <path d="M206.724576,188.171264 C210.691671,189.389652 213.809447,195.180468 214.329848,202.433659 L215.277998,202.429026 L215.279542,202.341005 L215.217773,186.693448 C214.603175,186.503509 214.150719,185.944502 214.147631,185.261958 C214.142998,184.431169 214.819365,183.754801 215.647066,183.750169 C216.477855,183.740903 217.158855,184.418815 217.165032,185.249604 C217.165032,185.92906 216.718753,186.497332 216.104154,186.691903 L216.165923,202.33174 L216.167467,202.425937 L217.114073,202.421305 C217.577338,195.163482 220.65342,189.354135 224.605073,188.10023 C223.962678,185.666543 223.449998,182.959529 223.156597,180.076475 C222.861651,177.219672 222.799882,174.494128 222.935773,171.994039 C220.702835,172.364652 218.224365,172.577754 215.606916,172.583931 C212.989467,172.593196 210.506365,172.403257 208.276515,172.055808 C208.429393,174.548176 208.389243,177.27372 208.115916,180.136699 C207.841046,183.016665 207.353073,185.734488 206.724576,188.171264" id="Fill-9" fill="#CDD5D8"></path>
                                <path d="M221.607283,76.8398088 C221.551691,62.937217 209.012644,62.9850878 209.065147,76.8938565 C208.839691,100.26868 208.617324,148.676816 208.390324,172.056271 C213.202106,172.039285 218.0108,172.017666 222.819494,171.997591 C222.41182,148.358707 222.005691,100.027782 221.607283,76.8398088" id="Fill-11" fill="#474F59"></path>
                                <polygon fill="#596273" points="223.068576 171.984156 208.142168 172.038204 208.146801 174.227905 223.08093 174.172313"></polygon>
                                <path d="M224.389654,94.1489449 L224.188906,42.5550878 C224.175008,38.5601966 221.222464,35.3266048 217.595097,35.3419919 L213.07826,35.3574891 C209.447804,35.3713871 206.526144,38.6281422 206.538459,42.6261218 L206.737702,94.2153463 L224.389654,94.1489449 Z" id="Fill-15" fill="#596273"></path>
                                <g transform="translate(202.292517, 43.170150)">
                                    <mask id="mask-2" fill="white">
                                        <use xlink:href="#path-1"></use>
                                    </mask>
                                    <g id="Clip-18"></g>
                                    <path d="M22.8059333,0.28815102 L6.01565442,0.122919728 C2.77125306,0.136817687 0.138361905,2.78823946 0.150715646,6.02800816 L0.14145034,33.5691306 L0.206307483,36.6235932 L0.232559184,43.347117 C2.3296068,42.6599401 3.17429388,40.8393075 3.16348435,38.9800694 C3.1588517,38.0628041 2.74036871,37.3725388 2.06400136,36.9895728 L2.00995374,6.25191973 C2.00377687,4.50386531 3.41982449,3.08164082 5.16942313,3.07237551 L22.8151986,3.00751837 C23.5656884,2.99979728 24.1756544,2.38983129 24.171048,1.64088571 C24.171048,0.891940136 23.5548789,0.285062585 22.8059333,0.28815102" id="Fill-17" fill="#474F59" mask="url(#mask-2)"></path>
                                </g>
                                <path d="M152.573031,4.54818435 C161.115644,11.4029667 162.771045,23.5281639 156.268344,31.6306741 C149.765644,39.7347286 137.566324,40.7415585 129.025256,33.8883204 C120.485732,27.0319939 118.830331,14.9067966 125.331487,6.80274218 C131.835732,-1.29822381 144.030419,-2.30659796 152.573031,4.54818435" id="Fill-20" fill="#FEC00F"></path>
                                <path d="M152.242723,4.95678435 C160.524363,11.6046415 162.553465,22.8311041 156.776546,30.0317912 C150.993451,37.2340224 139.59558,37.6833898 131.312397,31.0386211 C123.032301,24.3923082 121.004744,13.1673898 126.78475,5.96361429 C132.561669,-1.23861701 143.962628,-1.68798435 152.242723,4.95678435" id="Fill-22" fill="#F99B1C"></path>
                                <path d="M150.018432,7.72711088 C156.541207,12.9604646 158.139473,21.8026551 153.588663,27.4730224 C149.034765,33.1464782 140.056684,33.5016483 133.536997,28.2682946 C127.015765,23.0333966 125.4175,14.1927503 129.969854,8.52083878 C134.522207,2.85047143 143.497201,2.49530136 150.018432,7.72711088" id="Fill-24" fill="#FEC00F"></path>
                                <path d="M146.724924,17.6845354 C146.400639,17.4235626 146.079441,17.2552429 145.764421,17.1733993 C145.449401,17.0853789 145.129748,17.0699367 144.817816,17.1131748 C144.502795,17.1595014 144.189319,17.2536986 143.866578,17.3957667 C143.553101,17.5409231 143.23036,17.7061544 142.902986,17.9007259 L147.518652,22.0778347 C147.778081,21.6809707 147.941768,21.2794741 148.025156,20.8779776 C148.110088,20.4780252 148.116265,20.0873381 148.043686,19.710549 C147.972652,19.3353041 147.827496,18.9724129 147.603584,18.6342293 C147.379673,18.2929571 147.08936,17.9763925 146.724924,17.6845354 L146.724924,17.6845354 Z M136.496027,17.1965626 C136.809503,17.4467259 137.118346,17.6150456 137.422557,17.7061544 C137.728312,17.7941748 138.037156,17.823515 138.350632,17.7910864 C138.662564,17.7663789 138.971407,17.6922565 139.284884,17.5718075 C139.590639,17.4467259 139.910292,17.2938483 140.223768,17.1193517 L136.038938,13.3375626 C135.785686,13.7359707 135.615822,14.1220252 135.529346,14.4957259 C135.444414,14.8647939 135.428972,15.2153313 135.486108,15.5457939 C135.5417,15.8700796 135.655972,16.1773789 135.836646,16.4553381 C136.008054,16.7394741 136.228877,16.9788279 136.496027,17.1965626 L136.496027,17.1965626 Z M148.133251,24.286066 C147.517108,24.9083857 146.820666,25.3762837 146.054734,25.6851272 C145.29189,25.9939707 144.504339,26.151481 143.690537,26.1700116 L143.250435,25.0844265 C143.213373,24.9855966 143.202564,24.8790456 143.213373,24.7740388 C143.222639,24.6628551 143.267421,24.5671136 143.330734,24.4899027 C143.414122,24.3818075 143.57472,24.3123177 143.803265,24.2752565 C144.037986,24.2381952 144.312856,24.1826034 144.630965,24.1131136 C144.94753,24.0436238 145.290346,23.9324401 145.662503,23.7764741 C146.028482,23.6251408 146.389829,23.3749776 146.749632,23.0337054 L141.837476,18.5740048 C141.383476,18.8581408 140.917122,19.1268347 140.439959,19.3646442 C139.961251,19.6086306 139.465557,19.7723177 138.9467,19.852617 C138.424754,19.9282837 137.884278,19.8943109 137.316006,19.7414333 C136.752367,19.5854673 136.151666,19.2596374 135.518537,18.7500456 C135.044462,18.370168 134.646054,17.916168 134.320224,17.3942224 C134.002115,16.8707327 133.787469,16.3117259 133.684006,15.7218347 C133.575911,15.1381204 133.592897,14.5235218 133.734965,13.8919367 C133.872401,13.2665286 134.171979,12.6503857 134.64451,12.063583 L133.293319,10.8421068 C133.180591,10.7293789 133.106469,10.5996646 133.063231,10.4498755 C133.027714,10.3000864 133.05551,10.1595626 133.154339,10.0375694 L133.605251,9.47856259 L135.435149,11.141685 C135.998788,10.616651 136.579414,10.247583 137.192469,10.0313925 C137.80089,9.81674626 138.432476,9.69012041 139.079503,9.65305918 L139.426952,10.5332633 C139.531959,10.8035014 139.522693,11.013515 139.408421,11.1571272 C139.343564,11.2343381 139.226203,11.297651 139.047074,11.3516986 C138.87721,11.404202 138.668741,11.4659707 138.432476,11.5462701 C138.194666,11.6219367 137.936782,11.7269435 137.658822,11.8551136 C137.377775,11.9832837 137.102904,12.1670456 136.838843,12.4063993 L141.320163,16.4646034 C141.789605,16.1742905 142.269856,15.9009639 142.754741,15.6399912 C143.239625,15.3790184 143.744584,15.1998891 144.263441,15.1010592 C144.785387,14.9960524 145.327407,15.0068619 145.878693,15.1412088 C146.436156,15.2616578 147.015237,15.5674129 147.614394,16.0492088 C148.201197,16.5171068 148.682993,17.0405966 149.059782,17.6258551 C149.441203,18.206481 149.695999,18.8195354 149.827258,19.4542088 C149.955428,20.093515 149.950795,20.7451748 149.821081,21.4091884 C149.683646,22.0793789 149.376346,22.7140524 148.888373,23.3193857 L150.55304,24.8157327 C150.665768,24.9253721 150.742979,25.059719 150.775407,25.2110524 C150.803203,25.3639299 150.776952,25.4982769 150.68121,25.6140932 L150.231843,26.1746442 L148.133251,24.286066 Z" id="Fill-26" fill="#F99B1C"></path>
                                <polygon id="Fill-28" fill="#CDD5D8" points="5.97782109 217.666748 0.000154421769 212.28515 5.97782109 161.452592 35.2685422 113.605007 116.968467 113.605007 116.968467 143.862408 116.968467 183.766537 116.968467 217.666748"></polygon>
                                <polygon id="Fill-30" fill="#D3DBDE" points="5.97782109 217.666748 0.000154421769 212.28515 105.498018 207.213939 116.968467 217.666748"></polygon>
                                <polygon id="Fill-32" fill="#6392AE" points="116.968467 138.720163 116.968467 113.597286 110.989256 108.215687 110.989256 133.338565"></polygon>
                                <polygon id="Fill-34" fill="#FFFFFF" points="0 212.284686 0 178.378299 0 108.221401 29.2860884 108.221401 110.989102 108.221401 110.989102 138.478802 110.989102 178.378299 110.989102 212.284686"></polygon>
                                <polygon id="Fill-36" fill="#70A5C5" points="0 133.338565 110.989102 133.338565 110.989102 108.215687 0 108.215687"></polygon>
                                <path d="M22.3443667,123.27042 C22.3443667,126.079352 24.6189993,128.353984 27.4341082,128.353984 C30.2384075,128.353984 32.5114959,126.079352 32.5114959,123.27042 C32.5114959,120.456855 30.2384075,118.179134 27.4341082,118.179134 C24.6189993,118.179134 22.3443667,120.456855 22.3443667,123.27042" id="Fill-38" fill="#6392AE"></path>
                                <path d="M26.8352605,120.774655 L25.1860361,120.774655 C23.5383558,120.774655 22.199519,119.429641 22.199519,117.783505 L22.199519,107.613288 C22.199519,105.960975 23.5383558,104.623682 25.1860361,104.623682 L26.8352605,104.623682 C28.377934,104.623682 29.6009544,105.814274 29.7584646,107.315254 L34.5841449,107.315254 C34.4158252,103.164397 31.017002,99.8381517 26.8352605,99.8381517 L21.447485,99.8381517 C17.1607367,99.8381517 13.672349,103.326539 13.672349,107.613288 L13.672349,117.783505 C13.672349,122.074886 17.1607367,125.566363 21.447485,125.566363 L26.8352605,125.566363 C28.1540224,125.566363 29.2210769,124.494676 29.2210769,123.168193 C29.2210769,121.844798 28.1540224,120.774655 26.8352605,120.774655" id="Fill-39" fill="#FFFFFF"></path>
                                <path d="M27.0313762,99.8599252 C22.845002,99.9695646 19.4569884,103.386918 19.4569884,107.613442 L19.4569884,117.78366 C19.4569884,121.982388 22.8048524,125.388932 26.966519,125.532544 C28.221968,125.459966 29.2210769,124.445415 29.2210769,123.168347 C29.2210769,121.844952 28.1555667,120.77481 26.8352605,120.77481 L25.1860361,120.77481 C23.5383558,120.77481 22.199519,119.429796 22.199519,117.78366 L22.199519,107.613442 C22.199519,105.961129 23.5383558,104.623837 25.1860361,104.623837 L26.8352605,104.623837 C28.377934,104.623837 29.6009544,105.812884 29.7584646,107.315408 L34.5841449,107.315408 C34.4158252,103.234041 31.1266415,99.9695646 27.0313762,99.8599252" id="Fill-40" fill="#CDD5D8"></path>
                                <path d="M79.1774456,123.27042 C79.1774456,126.079352 81.450534,128.353984 84.259466,128.353984 C87.068398,128.353984 89.3492075,126.079352 89.3492075,123.27042 C89.3492075,120.456855 87.068398,118.179134 84.259466,118.179134 C81.450534,118.179134 79.1774456,120.456855 79.1774456,123.27042" id="Fill-41" fill="#6392AE"></path>
                                <path d="M83.665251,120.774655 L82.0175707,120.774655 C80.3698905,120.774655 79.0248769,119.429641 79.0248769,117.783505 L79.0248769,107.613288 C79.0248769,105.960975 80.3698905,104.623682 82.0175707,104.623682 L83.665251,104.623682 C85.2094687,104.623682 86.4355776,105.814274 86.594632,107.315254 L91.4079585,107.315254 C91.2504483,103.164397 87.8531694,99.8381517 83.665251,99.8381517 L78.2805639,99.8381517 C73.989183,99.8381517 70.5023395,103.326539 70.5023395,107.613288 L70.5023395,117.783505 C70.5023395,122.074886 73.989183,125.566363 78.2805639,125.566363 L83.665251,125.566363 C84.9840129,125.566363 86.0510673,124.494676 86.0510673,123.168193 C86.0510673,121.844798 84.9840129,120.774655 83.665251,120.774655" id="Fill-42" fill="#FFFFFF"></path>
                                <path d="M83.8658449,99.8599252 C79.667117,99.9695646 76.2852803,103.386918 76.2852803,107.613442 L76.2852803,117.78366 C76.2852803,121.982388 79.6346884,125.388932 83.7948109,125.532544 C85.0564367,125.459966 86.0509129,124.445415 86.0509129,123.168347 C86.0509129,121.844952 84.9854027,120.77481 83.6650966,120.77481 L82.0174163,120.77481 C80.3697361,120.77481 79.0247224,119.429796 79.0247224,117.78366 L79.0247224,107.613442 C79.0247224,105.961129 80.3697361,104.623837 82.0174163,104.623837 L83.6650966,104.623837 C85.2093143,104.623837 86.4354231,105.812884 86.5960218,107.315408 L91.4078041,107.315408 C91.2502939,103.234041 87.9518449,99.9695646 83.8658449,99.8599252" id="Fill-43" fill="#CDD5D8"></path>
                                <polygon id="Fill-44" fill="#F6F2F1" points="6.43938776 152.576429 17.2782517 152.576429 17.2782517 143.243177 6.43938776 143.243177"></polygon>
                                <polygon id="Fill-45" fill="#F6F2F1" points="20.5875102 152.576429 31.4263741 152.576429 31.4263741 143.243177 20.5875102 143.243177"></polygon>
                                <polygon id="Fill-46" fill="#CDD5D8" points="34.7356327 152.576429 45.5729524 152.576429 45.5729524 143.243177 34.7356327 143.243177"></polygon>
                                <polygon id="Fill-47" fill="#CDD5D8" points="48.8852993 152.576429 59.722619 152.576429 59.722619 143.243177 48.8852993 143.243177"></polygon>
                                <polygon id="Fill-48" fill="#CDD5D8" points="63.0334218 152.576429 73.8707415 152.576429 73.8707415 143.243177 63.0334218 143.243177"></polygon>
                                <polygon id="Fill-49" fill="#CDD5D8" points="77.18 152.576429 88.0173197 152.576429 88.0173197 143.243177 77.18 143.243177"></polygon>
                                <polygon id="Fill-50" fill="#CDD5D8" points="91.3265782 152.576429 102.166986 152.576429 102.166986 143.243177 91.3265782 143.243177"></polygon>
                                <polygon id="Fill-51" fill="#CDD5D8" points="6.43938776 165.279163 17.2782517 165.279163 17.2782517 155.947456 6.43938776 155.947456"></polygon>
                                <polygon id="Fill-52" fill="#CDD5D8" points="20.5875102 165.279163 31.4263741 165.279163 31.4263741 155.947456 20.5875102 155.947456"></polygon>
                                <polygon id="Fill-53" fill="#CDD5D8" points="34.7356327 165.279163 45.5729524 165.279163 45.5729524 155.947456 34.7356327 155.947456"></polygon>
                                <polygon id="Fill-54" fill="#CDD5D8" points="48.8852993 165.279163 59.722619 165.279163 59.722619 155.947456 48.8852993 155.947456"></polygon>
                                <polygon id="Fill-55" fill="#CDD5D8" points="63.0334218 165.279163 73.8707415 165.279163 73.8707415 155.947456 63.0334218 155.947456"></polygon>
                                <polygon id="Fill-56" fill="#CDD5D8" points="77.18 165.279163 88.0173197 165.279163 88.0173197 155.947456 77.18 155.947456"></polygon>
                                <polygon id="Fill-57" fill="#CDD5D8" points="91.3265782 165.279163 102.166986 165.279163 102.166986 155.947456 91.3265782 155.947456"></polygon>
                                <polygon id="Fill-58" fill="#CDD5D8" points="6.43938776 177.984986 17.2782517 177.984986 17.2782517 168.653279 6.43938776 168.653279"></polygon>
                                <polygon id="Fill-59" fill="#CDD5D8" points="20.5875102 177.984986 31.4263741 177.984986 31.4263741 168.653279 20.5875102 168.653279"></polygon>
                                <polygon id="Fill-60" fill="#CDD5D8" points="34.7356327 177.984986 45.5729524 177.984986 45.5729524 168.653279 34.7356327 168.653279"></polygon>
                                <polygon id="Fill-61" fill="#EC8558" points="48.8852993 177.984986 59.722619 177.984986 59.722619 168.653279 48.8852993 168.653279"></polygon>
                                <polygon id="Fill-62" fill="#CDD5D8" points="63.0334218 177.984986 73.8707415 177.984986 73.8707415 168.653279 63.0334218 168.653279"></polygon>
                                <polygon id="Fill-63" fill="#CDD5D8" points="77.18 177.984986 88.0173197 177.984986 88.0173197 168.653279 77.18 168.653279"></polygon>
                                <polygon id="Fill-64" fill="#CDD5D8" points="91.3265782 177.984986 102.166986 177.984986 102.166986 168.653279 91.3265782 168.653279"></polygon>
                                <polygon id="Fill-65" fill="#EC8558" points="6.43938776 190.687721 17.2782517 190.687721 17.2782517 181.354469 6.43938776 181.354469"></polygon>
                                <polygon id="Fill-66" fill="#CDD5D8" points="20.5875102 190.687721 31.4263741 190.687721 31.4263741 181.354469 20.5875102 181.354469"></polygon>
                                <polygon id="Fill-67" fill="#CDD5D8" points="34.7356327 190.687721 45.5729524 190.687721 45.5729524 181.354469 34.7356327 181.354469"></polygon>
                                <polygon id="Fill-68" fill="#CDD5D8" points="48.8852993 190.687721 59.722619 190.687721 59.722619 181.354469 48.8852993 181.354469"></polygon>
                                <polygon id="Fill-69" fill="#CDD5D8" points="63.0334218 190.687721 73.8707415 190.687721 73.8707415 181.354469 63.0334218 181.354469"></polygon>
                                <polygon id="Fill-70" fill="#CDD5D8" points="77.18 190.687721 88.0173197 190.687721 88.0173197 181.354469 77.18 181.354469"></polygon>
                                <polygon id="Fill-71" fill="#CDD5D8" points="91.3265782 190.687721 102.166986 190.687721 102.166986 181.354469 91.3265782 181.354469"></polygon>
                                <polygon id="Fill-72" fill="#CDD5D8" points="6.43938776 203.393544 17.2782517 203.393544 17.2782517 194.061837 6.43938776 194.061837"></polygon>
                                <polygon id="Fill-73" fill="#CDD5D8" points="20.5875102 203.393544 31.4263741 203.393544 31.4263741 194.061837 20.5875102 194.061837"></polygon>
                                <polygon id="Fill-74" fill="#CDD5D8" points="34.7356327 203.393544 45.5729524 203.393544 45.5729524 194.061837 34.7356327 194.061837"></polygon>
                                <polygon id="Fill-75" fill="#CDD5D8" points="48.8852993 203.393544 59.722619 203.393544 59.722619 194.061837 48.8852993 194.061837"></polygon>
                                <polygon id="Fill-76" fill="#F6F2F1" points="63.0334218 203.393544 73.8707415 203.393544 73.8707415 194.061837 63.0334218 194.061837"></polygon>
                                <polygon id="Fill-77" fill="#F6F2F1" points="77.18 203.393544 88.0173197 203.393544 88.0173197 194.061837 77.18 194.061837"></polygon>
                                <polygon id="Fill-78" fill="#F6F2F1" points="91.3265782 203.393544 102.166986 203.393544 102.166986 194.061837 91.3265782 194.061837"></polygon>
                            </g>
                        </g>
                    </g>
                </g>
            </g>
        </g>
    </g>
</svg>